<svg width="31" height="35" viewBox="0 0 31 35" fill="none" xmlns="http://www.w3.org/2000/svg">
<path d="M16.3591 0.0174955C16.4694 0.0311792 16.828 0.0790723 17.1521 0.120123C21.0205 0.633263 24.5992 3.45211 26.0473 7.13987C26.6265 8.60403 26.8334 9.70557 26.8334 11.3681C26.8403 13.0376 26.5576 14.3786 25.9025 15.8564C25.5508 16.6501 25.5508 16.6569 23.296 20.1599C22.2685 21.7541 21.4549 23.0814 21.4825 23.1088C21.51 23.1361 21.841 23.2046 22.2203 23.273C24.7647 23.7177 27.3781 24.6277 28.8745 25.606C30.3846 26.5844 31.1845 28.0007 30.9638 29.2938C30.7294 30.6417 29.6261 31.8253 27.7367 32.7421C22.8133 35.1436 13.8077 35.7115 7.02941 34.0489C4.09191 33.3305 1.7888 32.1811 0.795845 30.9495C-0.548785 29.2664 -0.16953 27.3028 1.78191 25.8455C3.19549 24.785 6.00197 23.7519 8.77398 23.273C9.15323 23.2046 9.48422 23.1361 9.5118 23.1088C9.53938 23.0814 8.66365 21.6651 7.56037 19.9547C6.45708 18.2442 5.42275 16.5611 5.25726 16.2259C4.84352 15.3638 4.56081 14.5359 4.34705 13.5302C4.18845 12.7776 4.16087 12.5039 4.16087 11.4366C4.16087 10.7592 4.20224 9.95872 4.25051 9.65767C5.02281 4.77943 8.77398 0.982198 13.6353 0.147491C14.2146 0.044863 15.966 -0.0372393 16.3591 0.0174955ZM13.656 2.22742C10.1255 2.94581 7.3604 5.60045 6.47087 9.11033C5.93991 11.2313 6.20884 13.5986 7.2018 15.4869C7.52589 16.0959 15.4282 28.4386 15.4971 28.4386C15.5178 28.4386 17.0073 26.1397 18.807 23.3277C20.6067 20.5225 22.434 17.6832 22.8616 17.0195C23.2891 16.3559 23.7511 15.5827 23.889 15.3022C25.7922 11.3476 24.613 6.55831 21.0894 3.91736C19.7241 2.89792 18.1933 2.29583 16.3935 2.07005C15.8488 2.00163 14.3387 2.09058 13.656 2.22742ZM18.2209 28.0623C16.8211 30.2311 16.2212 31.1137 16.0557 31.2232C15.7385 31.4353 15.2558 31.4353 14.9386 31.2232C14.7731 31.1137 14.1663 30.2311 12.7734 28.0623L10.8357 25.0519L10.5668 25.0724C10.4151 25.0792 9.91864 25.1545 9.46353 25.2297C6.23642 25.7703 3.82299 26.6871 2.66454 27.8228C1.85776 28.6165 1.85776 29.0954 2.65764 29.8754C4.16087 31.3258 7.60174 32.3795 12.2907 32.8311C13.4698 32.9405 17.6072 32.9405 18.738 32.8311C21.2549 32.5779 23.1443 32.2221 24.8406 31.6816C26.4817 31.1616 27.6057 30.5801 28.3366 29.8754C29.0882 29.1501 29.1227 28.6644 28.4745 27.9528C27.5505 26.9334 25.3646 25.9892 22.6271 25.435C21.4962 25.2024 20.4136 25.0245 20.255 25.045C20.1999 25.045 19.2828 26.4065 18.2209 28.0623Z" fill="#4E4E4E"/>
<path d="M16.1522 6.24314C16.228 6.25682 16.4625 6.30472 16.6693 6.34577C18.1657 6.64681 19.6275 7.87834 20.2688 9.38355C20.5515 10.0472 20.6343 10.4919 20.6343 11.3335C20.6343 12.175 20.5515 12.6198 20.2688 13.2834C19.6275 14.7818 18.2691 15.9312 16.6693 16.3349C16.1798 16.458 14.8144 16.458 14.3249 16.3349C12.7251 15.9312 11.3667 14.7818 10.7254 13.2834C10.4427 12.6198 10.3599 12.175 10.3599 11.3335C10.3599 10.8888 10.4013 10.3825 10.4565 10.1704C10.9254 8.32991 12.3665 6.87259 14.2214 6.35945C14.5731 6.26367 15.897 6.18156 16.1522 6.24314ZM14.9386 8.32306C13.3181 8.63095 12.1872 10.2046 12.4493 11.785C12.6699 13.126 13.6905 14.1386 15.042 14.3576C17.0348 14.686 18.8759 12.8592 18.5449 10.8819C18.2553 9.15777 16.6349 8.00834 14.9386 8.32306Z" fill="#4E4E4E"/>
</svg>
