<svg width="30" height="30" viewBox="0 0 30 30" fill="none" xmlns="http://www.w3.org/2000/svg">
<path d="M14.1189 0.0444546C11.7833 0.26151 9.75279 1.20599 8.1331 2.82511C5.55685 5.40044 4.62377 9.81195 5.85027 13.6134C6.27867 14.945 6.41364 15.1562 10.7739 21.4449C13.0039 24.6714 14.8525 27.3289 14.876 27.3582C14.8994 27.3817 16.7539 24.7536 18.9956 21.5212C22.0237 17.1508 23.1505 15.473 23.3911 14.9919C25.0049 11.783 24.8465 7.5886 22.992 4.49116C21.9005 2.67258 20.0695 1.21773 17.998 0.531363C16.701 0.0972519 15.3278 -0.0728726 14.1189 0.0444546ZM15.768 1.05934C18.667 1.35265 21.1435 3.02457 22.4463 5.57057C23.1035 6.84944 23.438 8.1987 23.4908 9.78262C23.5613 11.8417 23.0918 13.7131 22.1294 15.209C21.3254 16.4468 14.917 25.6394 14.876 25.5983C14.8231 25.5397 8.35023 16.1946 7.85728 15.4613C6.74228 13.8011 6.2552 11.9942 6.33149 9.77675C6.3843 8.2163 6.68946 6.93156 7.31152 5.69376C8.89013 2.52593 12.2175 0.701487 15.768 1.05934Z" fill="#4E4E4E"/>
<path d="M14.5885 6.0454C13.1566 6.23313 12.0357 7.19521 11.6191 8.59727C11.5486 8.83779 11.5134 9.13698 11.5134 9.53589C11.5193 10.0345 11.5428 10.1988 11.6895 10.6212C12.0122 11.5363 12.6108 12.2344 13.4441 12.6392C14.4535 13.1437 15.5451 13.1437 16.5544 12.6392C17.3877 12.2344 17.9863 11.5363 18.3091 10.6212C18.4558 10.1988 18.4793 10.0345 18.4851 9.53589C18.4851 8.85539 18.3854 8.45648 18.0626 7.84051C17.4288 6.62617 15.9558 5.86355 14.5885 6.0454ZM15.727 7.13068C16.8831 7.48266 17.6284 8.6618 17.464 9.87614C17.3173 10.9204 16.4371 11.8003 15.3573 11.9763C14.3244 12.1406 13.2035 11.5422 12.7575 10.5801C12.1237 9.23671 12.7986 7.62932 14.1953 7.15415C14.5768 7.02509 15.3338 7.01335 15.727 7.13068Z" fill="#4E4E4E"/>
<path d="M8.57319 21.5739C5.58615 21.9728 2.8984 22.8 1.41955 23.7856C-0.0769083 24.7828 -0.417279 25.9796 0.527542 26.9475C2.0416 28.508 5.72112 29.5287 11.302 29.9335C12.6576 30.0332 17.3407 30.0332 18.6963 29.9335C24.2772 29.5287 27.9567 28.508 29.4708 26.9475C30.0165 26.3844 30.1515 25.6863 29.8229 25.0586C29.1069 23.68 26.5072 22.4656 22.8629 21.8027C21.073 21.4801 20.7268 21.4801 20.58 21.8027C20.4803 22.0315 20.5038 22.1723 20.6798 22.3483C20.8207 22.4891 20.9204 22.5184 21.5718 22.6123C23.9896 22.9467 26.3194 23.6272 27.7161 24.4133C28.3088 24.7476 28.9426 25.3636 28.9954 25.6569C29.1949 26.7011 26.4074 27.892 22.3054 28.5138C19.8406 28.8893 18.0918 29.0066 14.9991 29.0066C11.9065 29.0066 10.1577 28.8893 7.69292 28.5138C3.59087 27.892 0.80336 26.7011 1.00289 25.6569C1.0557 25.3636 1.6895 24.7476 2.28221 24.4133C3.6789 23.6272 6.00868 22.9467 8.42648 22.6123C9.07788 22.5184 9.17764 22.4891 9.32435 22.3483C9.49454 22.1723 9.51801 22.0315 9.41825 21.8086C9.30675 21.5681 9.08375 21.5035 8.57319 21.5739Z" fill="#4E4E4E"/>
</svg>
