<svg width="157" height="142" viewBox="0 0 157 142" fill="none" xmlns="http://www.w3.org/2000/svg">
<path d="M111.615 59.4026C107.321 58.4918 103.635 56.41 99.8615 52.7234C91.7509 44.873 80.5176 32.7722 79.4333 30.7771C73.1877 19.2402 79.52 4.4937 92.0979 1.28417C96.8688 0.0697527 100.382 0.590217 107.712 3.49614C113.827 5.92497 114.001 5.96834 117.427 5.79486C120.593 5.62137 121.461 5.36114 126.145 3.14916C132.304 0.286613 135.73 -0.450711 140.024 0.243241C147.571 1.45766 153.383 6.40206 155.855 13.7319C156.679 16.074 156.766 17.2017 156.635 20.7148C156.288 27.6977 155.421 29.0422 142.713 42.5743C130.872 55.1956 130.309 55.716 126.665 57.5377C121.938 59.9231 116.907 60.5737 111.615 59.4026Z" fill="#F6A8B5" fill-opacity="0.5"/>
<path d="M76.1388 26.3819C72.8184 27.198 70.4265 28.6049 67.6407 31.3908C65.5583 33.4731 64.883 34.4017 63.9262 36.3433C61.5062 41.2677 61.3374 43.3219 62.3223 54.7747C63.1383 64.4829 63.476 66.3682 65.1362 70.4485C65.3332 70.9268 64.9111 70.955 58.8611 70.955H52.389L36.2651 82.7736L20.1411 94.5922L19.4095 93.8887C17.8899 92.4254 17.5241 92.5943 8.51946 99.0945C0.893642 104.582 0.274571 105.088 0.105734 106.017C-0.119383 107.199 -1.16055 105.651 13.3032 125.686C24.6434 141.416 24.6997 141.501 26.3881 140.854C27.4011 140.46 41.5834 130.245 42.5683 129.176C43.5813 128.078 43.5251 127.318 42.3713 125.574C41.8367 124.786 41.499 124.139 41.6397 124.139C41.7804 124.139 45.6074 124.955 50.166 125.968L58.439 127.797H66.8528C79.4593 127.769 84.3274 127.29 90.1805 125.405C93.4446 124.336 99.354 121.381 102.28 119.299C103.687 118.314 106.079 116.71 107.599 115.725L110.385 113.924L123.976 110.885C131.461 109.197 138.018 107.649 138.552 107.424C140.072 106.805 141.957 104.863 142.689 103.231C143.871 100.53 143.42 96.8715 141.62 94.8173C141.254 94.3952 141.31 94.1982 142.21 93.0164C145.559 88.6548 144.04 82.6047 139.059 80.2973C137.736 79.7064 137.258 79.622 135.373 79.7626C133.459 79.8752 132.53 80.1847 126.368 82.7454C122.597 84.2931 119.417 85.5875 119.305 85.5875C119.192 85.5875 118.883 85.081 118.601 84.4338C117.476 81.9294 113.93 79.3687 110.3 78.412C109.456 78.1868 107.514 77.9899 105.995 77.9899H103.209L104.025 76.9206C106.698 73.4875 108.921 68.4224 109.709 64.0045C110.16 61.5845 111.201 48.1338 111.173 45.2073C111.144 36.8498 106.023 29.7024 98.0033 26.7196C96.4837 26.1287 95.8084 26.1005 87.0851 26.0161C79.6563 25.9598 77.4614 26.0442 76.1388 26.3819ZM96.2586 31.1656C100.564 32.4319 104.447 36.3996 105.826 40.9582C106.642 43.6033 106.614 43.6877 105.038 43.2094C102.337 42.3933 99.6072 42.731 90.3212 44.954C84.6932 46.3329 80.613 47.0363 78.3337 47.0363C76.4202 47.0363 73.353 46.1922 71.327 45.1229C70.3983 44.6163 68.9632 43.8847 68.1472 43.4626C66.7683 42.731 66.6839 42.6466 66.8246 41.8305C66.909 41.3803 67.5 39.9452 68.119 38.6508C69.8356 35.1052 73.0997 32.2349 76.6453 31.1094C78.5025 30.5466 94.2326 30.5747 96.2586 31.1656ZM104.25 47.9368C104.644 48.1057 105.066 48.584 105.179 48.978C105.291 49.3719 105.348 52.608 105.32 56.1817C105.291 61.7252 105.207 62.9633 104.7 64.8768C103.519 69.3229 100.536 74.4724 97.8625 76.6673C95.1893 78.8622 90.8839 80.241 86.7193 80.241C83.5958 80.241 82.3577 79.9878 82.6109 79.425C84.3556 75.401 84.4963 72.0524 82.9767 71.2364C82.6953 71.0675 79.8251 70.955 76.5609 70.955H70.6235L69.92 69.5761C69.5542 68.7882 68.8788 67.0717 68.4567 65.6929C67.7532 63.3291 67.697 62.8508 67.5844 55.9566C67.5281 51.9889 67.5563 48.7247 67.6407 48.7247C67.7532 48.7247 68.5693 49.0905 69.4979 49.5689C71.3551 50.5257 74.5067 51.4261 76.8142 51.6794C79.2904 51.9608 83.8491 51.3417 89.7584 49.9347C98.2002 47.9368 99.6072 47.6554 101.633 47.6273C102.674 47.5991 103.856 47.7398 104.25 47.9368ZM78.8965 75.7106C79.206 76.1889 77.5739 78.8622 76.1388 80.1566C73.7188 82.3515 72.8746 82.5485 65.699 82.7173C61.5062 82.8017 59.3395 82.9424 59.03 83.1675C58.2983 83.7022 51.179 95.7459 51.0102 96.7308C50.8976 97.378 51.0383 97.8001 51.573 98.4192L52.2765 99.2352H75.6042H98.9037L116.857 91.8064C135.992 83.9273 136.217 83.8429 137.849 85.0247C139.34 86.0659 139.65 88.5703 138.496 89.9773C137.877 90.7371 109.147 109.168 107.965 109.562C107.458 109.731 106.614 110.266 106.079 110.772C105.545 111.279 104.138 112.32 102.984 113.08C101.83 113.868 99.8042 115.218 98.4816 116.119C95.5833 118.117 92.4879 119.58 88.6046 120.875C83.3988 122.591 81.5416 122.788 69.6104 122.929L58.9174 123.069L48.5058 120.79C42.7934 119.524 37.869 118.37 37.5595 118.258C36.9404 118.004 23.2927 99.2915 23.2364 98.6162C23.2364 98.391 30.1869 93.1008 38.6851 86.8538L54.1618 75.4854L66.4588 75.4573C73.2123 75.4573 78.8121 75.5699 78.8965 75.7106ZM109.934 83.2238C110.666 83.4771 111.82 84.0399 112.467 84.4901C113.733 85.3624 115.028 87.1915 114.634 87.5292C114.493 87.6417 110.61 89.2738 106.023 91.1592L97.6656 94.5922H77.6302C59.1707 94.5922 57.623 94.5641 57.7918 94.142C57.9044 93.8606 58.8048 92.3129 59.7897 90.6527L61.5907 87.6417L66.8809 87.4729C72.959 87.3041 74.8444 86.882 77.5177 85.081L79.1216 83.9836L80.5567 84.3775C84.4963 85.4468 91.0809 85.0529 95.133 83.5052C96.8214 82.8861 97.3279 82.8299 102.759 82.8017C107.458 82.7736 108.865 82.858 109.934 83.2238ZM137.877 97.6875C139.143 99.4603 138.721 101.74 136.977 102.865C136.414 103.231 122.653 106.467 122.457 106.298C122.372 106.186 136.836 96.8715 137.089 96.8434C137.202 96.8434 137.539 97.2373 137.877 97.6875ZM26.2192 111.195C31.0874 117.92 35.646 124.251 36.3495 125.264L37.672 127.122L31.9316 131.258L26.1911 135.366L25.4876 134.466C25.1218 133.959 20.5069 127.572 15.2448 120.284L5.64923 106.974L11.3334 102.893C14.4569 100.642 17.102 98.8413 17.2146 98.8694C17.299 98.9257 21.3792 104.469 26.2192 111.195Z" fill="#4E4E4E"/>
<path d="M25.769 120.875C23.5742 121.691 22.2797 123.688 22.5893 125.883C23.1239 129.879 28.1609 131.427 30.7497 128.388C33.8451 124.701 30.2432 119.242 25.769 120.875Z" fill="#4E4E4E"/>
</svg>
