<svg width="144" height="141" viewBox="0 0 144 141" fill="none" xmlns="http://www.w3.org/2000/svg">
<path d="M98.6153 59.4026C94.3215 58.4918 90.6348 56.41 86.8615 52.7234C78.7509 44.873 67.5176 32.7722 66.4333 30.7771C60.1877 19.2402 66.52 4.4937 79.0979 1.28417C83.8688 0.0697527 87.3819 0.590217 94.7118 3.49614C100.827 5.92497 101.001 5.96834 104.427 5.79486C107.593 5.62137 108.461 5.36114 113.145 3.14916C119.304 0.286613 122.73 -0.450711 127.024 0.243241C134.571 1.45766 140.383 6.40206 142.855 13.7319C143.679 16.074 143.766 17.2017 143.635 20.7148C143.288 27.6977 142.421 29.0422 129.713 42.5743C117.872 55.1956 117.309 55.716 113.665 57.5377C108.938 59.9231 103.907 60.5737 98.6153 59.4026Z" fill="#F6A8B5" fill-opacity="0.5"/>
<path d="M55.1009 1.47574C53.7769 2.35922 53.6924 3.03885 53.6643 11.0243V18.5L52.3403 19.1116C48.5373 20.7767 45.4949 25.6359 45.1569 30.563L45.0723 31.7524L43.1004 31.8543C41.4102 31.9562 41.0158 32.0922 40.3679 32.8397C38.7622 34.6747 39.6355 37.9708 41.8609 38.5145C42.368 38.6164 49.0443 38.7184 56.7348 38.7184C69.4678 38.7184 70.7918 38.6504 71.6932 38.1067C72.9045 37.3931 73.4961 35.9999 73.2707 34.4708C72.989 32.6358 71.9749 31.9223 69.7495 31.9223H67.8621L67.5522 29.6796C67.3832 28.4563 66.8761 26.6213 66.4535 25.6019C65.4394 23.1893 62.9604 20.4029 60.9322 19.3495L59.2983 18.5V13.1311V7.79611H79.0175H98.7366V19.8592V31.9223H92.6518C89.0461 31.9223 86.3699 32.0582 86.0318 32.2621C84.7078 33.1456 84.6515 33.6892 84.6515 48.5727V62.5047H63.8055H42.9596L26.7617 52.7183L10.5357 42.9659H8.36656C5.83124 42.9999 4.19736 43.7815 2.45081 45.8203C0.676085 47.8931 0 49.9659 0 53.1601C0 55.4368 0.140851 56.1504 0.760596 57.6115C1.18315 58.529 2.02826 59.8882 2.648 60.5678C3.43677 61.4173 9.49336 65.2571 21.2685 72.359L38.7341 82.893H43.3821H48.0302V88.7037V94.5143L48.8472 95.4998C49.6641 96.4852 49.6923 96.4852 53.0727 96.4852H56.4813L56.4249 108.446L56.3404 120.441L48.6781 120.611C41.0722 120.781 41.0158 120.781 40.3116 121.597L39.5792 122.412V130.534C39.5792 135.461 39.6918 138.927 39.8609 139.335C40.6496 141.068 38.9312 141 79.0175 141C112.258 141 116.315 140.932 117.075 140.456C118.766 139.437 118.737 139.64 118.737 116.534C118.737 104.946 118.822 95.4658 118.906 95.4658C119.019 95.4658 121.977 97.4366 125.498 99.8832C132.569 104.776 133.64 105.32 135.752 105.32C138.119 105.32 139.781 104.437 141.612 102.262C142.879 100.733 143.302 99.9172 143.668 98.3541C144.57 94.6842 143.584 90.3687 141.33 87.9221C140.738 87.3105 135.414 83.4367 129.498 79.325L118.737 71.8493V53.3979C118.737 33.5873 118.709 33.2475 117.301 32.33C116.822 32.0582 114.765 31.8883 110.568 31.8203L104.512 31.7524L104.371 17.1407C104.286 9.08737 104.173 2.49516 104.145 2.4272C104.117 2.39322 103.666 2.05341 103.188 1.67961C102.286 1.03398 101.694 1 79.0175 1C60.2561 1.03398 55.6362 1.10194 55.1009 1.47574ZM58.9321 25.7038C60.5941 26.6553 62.1153 29.4077 62.1153 31.4805C62.1153 31.8203 60.7913 31.9223 56.4813 31.9223H50.8472V31.0048C50.8472 29.5097 51.9459 27.199 53.129 26.2475C55.0446 24.7184 56.932 24.5485 58.9321 25.7038ZM113.103 53.1601C113.103 61.1115 112.991 67.6018 112.85 67.6018C112.737 67.6018 110.991 66.4464 108.991 65.0532L105.357 62.5047H97.8352H90.2856V50.6115V38.7184H101.694H113.103V53.1601ZM25.2123 59.4465L41.5792 69.3008H72.6792H103.807L120.484 80.8881C129.668 87.2765 137.414 92.7813 137.696 93.0871C137.978 93.393 138.288 94.3104 138.372 95.058C138.513 96.2813 138.428 96.5871 137.668 97.5046C137.048 98.2182 136.541 98.524 135.865 98.524C135.161 98.524 131.132 95.9075 118.878 87.3784L102.821 76.2668L71.2707 76.0969L39.72 75.927L23.0996 65.8688C13.9443 60.296 6.28196 55.5387 6.08477 55.2329C5.88758 54.961 5.66221 54.1455 5.5777 53.4319C5.38051 51.529 6.70451 49.6941 8.36656 49.6261C8.64826 49.5921 16.226 54.0096 25.2123 59.4465ZM90.2856 86.291V89.6891H71.9749H53.6643V86.291V82.893H71.9749H90.2856V86.291ZM106.906 87.0726L112.963 91.2522L113.047 112.728L113.103 134.238L108.822 134.136L104.512 134.034L104.427 128.223C104.314 120.17 105.131 120.815 95.2717 120.611L87.6094 120.441L87.5249 108.446L87.4685 96.4852H90.8771C94.2576 96.4852 94.2857 96.4852 95.1027 95.4998L95.9196 94.5143V88.7037V82.893H98.3986H100.849L106.906 87.0726ZM81.8345 108.548V120.611H71.9749H62.1153V108.548V96.4852H71.9749H81.8345V108.548ZM98.7366 130.805V134.204H71.9749H45.2132V130.805V127.407H71.9749H98.7366V130.805Z" fill="#4E4E4E"/>
</svg>
