<svg width="125" height="140" viewBox="0 0 125 140" fill="none" xmlns="http://www.w3.org/2000/svg">
<path d="M79.6153 59.4026C75.3215 58.4918 71.6348 56.41 67.8615 52.7234C59.7509 44.873 48.5176 32.7722 47.4333 30.7771C41.1877 19.2402 47.52 4.4937 60.0979 1.28417C64.8688 0.0697527 68.3819 0.590217 75.7118 3.49614C81.8273 5.92497 82.0007 5.96834 85.4271 5.79486C88.5933 5.62137 89.4607 5.36114 94.1449 3.14916C100.304 0.286613 103.73 -0.450711 108.024 0.243241C115.571 1.45766 121.383 6.40206 123.855 13.7319C124.679 16.074 124.766 17.2017 124.635 20.7148C124.288 27.6977 123.421 29.0422 110.713 42.5743C98.8725 55.1956 98.3086 55.716 94.6654 57.5377C89.9378 59.9231 84.9067 60.5737 79.6153 59.4026Z" fill="#F6A8B5" fill-opacity="0.5"/>
<path d="M19.1469 0.607998C18.5693 1.1856 18.5389 1.6112 18.5389 7.14401V13.0416L17.6269 14.5008C15.0125 18.5744 15.1341 24.3809 17.8701 28.3329C19.5117 30.7041 21.3661 32.1025 24.2237 33.1361C26.9597 34.1089 30.9725 33.9265 33.5869 32.6801C35.8669 31.5857 38.5421 28.9713 39.6061 26.7521C41.5518 22.6785 41.1565 17.6016 38.6029 14.0144C38.0557 13.1936 37.9949 12.6768 37.9949 7.17442C37.9949 1.6112 37.9645 1.1856 37.3869 0.607998C36.8093 0.0303955 36.3837 -3.8147e-06 28.2669 -3.8147e-06C20.1501 -3.8147e-06 19.7245 0.0303955 19.1469 0.607998ZM33.6781 8.87682L33.7693 13.376H28.4189H23.0989V8.81602V4.25601L28.3581 4.31681L33.5869 4.40801L33.6781 8.87682ZM36.2013 19.2129C37.8125 25.2017 32.0061 30.7953 26.0173 29.0625C24.0109 28.4545 21.8829 26.6913 20.9101 24.8369C20.1501 23.3169 19.9069 20.8849 20.3325 19.2129L20.6973 17.936H28.2669H35.8365L36.2013 19.2129Z" fill="#4E4E4E"/>
<path d="M13.6749 35.3553C8.32446 37.1793 4.52445 41.1617 2.82205 46.6641C2.33565 48.3361 2.27485 49.7953 2.27485 64.1442V79.8002L3.15645 81.4114C4.70685 84.2082 6.74366 85.2722 10.0269 85.0594L12.1549 84.9074L12.0941 110.17L12.0029 135.432L6.43966 135.584C1.36284 135.736 0.815642 135.797 0.420441 136.314C-0.18756 137.135 -0.12676 138.503 0.542042 139.172C1.08924 139.719 3.03485 139.749 46.9934 139.932C72.2254 140.023 97.4271 140.023 103.021 139.932C112.323 139.749 113.235 139.688 113.752 139.172C114.482 138.442 114.451 136.952 113.691 136.192C113.144 135.645 112.688 135.584 108.067 135.584C105.301 135.584 103.051 135.493 103.051 135.372C103.051 135.28 103.598 133.456 104.298 131.359C105.787 126.768 106.486 123.333 106.243 121.904C105.787 119.412 104.115 117.466 101.501 116.372C100.163 115.824 100.072 115.703 99.7375 114.122C99.5247 113.18 98.8255 111.416 98.2175 110.17L97.0623 107.86L98.7039 106.248C99.7679 105.154 100.71 103.786 101.47 102.235C102.474 100.077 102.595 99.5907 102.686 96.7635C102.778 94.6051 102.656 92.9635 102.322 91.3827C101.957 89.8323 101.896 88.9203 102.078 88.5555C105.118 82.901 104.146 71.7442 100.65 71.7442C99.1295 71.7442 96.1503 72.9906 93.6271 74.6322L91.1343 76.2738L88.8239 75.6354C85.5103 74.7234 78.9439 74.7234 75.6303 75.6354L73.2895 76.2738L71.2222 74.8754C67.5438 72.3826 64.1086 71.2578 62.6798 72.0178C61.6462 72.565 60.7342 75.4834 60.5518 78.797C60.3998 82.141 60.7646 84.6338 61.8894 87.4002C62.619 89.1939 62.619 89.2243 62.1326 91.2003C61.403 94.0275 61.4638 98.1315 62.2846 100.685C62.9838 102.843 64.9598 105.823 66.571 107.069L67.5438 107.829L66.8142 109.015C66.115 110.14 65.8718 110.656 65.0206 112.936L64.6862 113.848L64.1694 112.146C63.1662 108.954 60.339 105.792 57.2078 104.333C54.715 103.178 51.3406 103.178 48.787 104.363C46.3854 105.488 45.595 106.248 45.595 107.464C45.595 108.62 46.051 109.076 48.5134 110.322C50.611 111.356 51.5838 112.389 51.7966 113.818C51.8878 114.335 52.1006 115.855 52.3134 117.192C52.4958 118.53 52.9214 120.324 53.2558 121.205C53.9246 123.029 56.1438 125.644 57.6638 126.434C58.6366 126.92 58.7886 127.224 60.0654 131.055C60.795 133.304 61.403 135.22 61.403 135.372C61.403 135.493 57.603 135.554 52.9822 135.524L44.531 135.432L44.4398 110.17L44.379 84.9074L46.7198 85.0594C48.787 85.1506 49.2734 85.0898 50.459 84.4514C52.283 83.4482 53.6814 81.5938 54.107 79.5266C54.3502 78.3714 54.411 73.325 54.3502 63.0194C54.2286 49.7345 54.1678 48.0017 53.6814 46.5121C51.827 40.8881 47.6622 36.7233 42.2814 35.1425C38.7854 34.1089 38.907 34.0481 33.2829 39.5809L28.2669 44.4753L23.2813 39.5809C18.3565 34.7169 18.2957 34.6561 16.9885 34.6561C16.2589 34.6561 14.7693 34.9905 13.6749 35.3553ZM21.7613 44.3841C24.6797 47.2113 27.3853 49.6129 27.7805 49.7345C28.9661 50.0081 29.9997 49.2481 35.1069 44.1105C37.7822 41.4049 40.1838 39.2161 40.4574 39.2161C40.731 39.2161 41.9166 39.7025 43.0718 40.2801C45.6862 41.5873 47.4494 43.4113 48.7262 46.1473L49.699 48.1841L49.7902 63.6274L49.8814 79.0706L48.9694 79.9522C48.483 80.469 47.7838 80.8642 47.419 80.8642C46.5374 80.8642 45.1086 80.0738 44.8046 79.4354C44.6526 79.1314 44.5006 73.477 44.4398 66.8802C44.3486 56.4226 44.2878 54.8114 43.8622 54.3554C43.1934 53.6257 41.491 53.6562 40.731 54.4162C40.1534 54.9938 40.123 55.4194 40.123 67.0322V79.0402H28.2669H16.4109V67.0322C16.4109 55.4194 16.3805 54.9938 15.8029 54.4162C15.0429 53.6562 13.3405 53.6257 12.6717 54.3554C12.2461 54.8114 12.1853 56.4226 12.0941 66.8802C12.0333 73.477 11.8813 79.1314 11.7293 79.4354C11.4253 80.0738 9.99647 80.8642 9.11487 80.8642C8.75006 80.8642 8.05086 80.469 7.56446 79.9522L6.65246 79.0706L6.74366 63.6274L6.83486 48.1841L7.80766 46.1473C9.08447 43.4113 10.8477 41.5873 13.4621 40.2801C14.6173 39.7025 15.7725 39.2161 16.0461 39.2161C16.2893 39.2161 18.8733 41.5265 21.7613 44.3841ZM67.7566 77.9154C68.6382 78.4626 70.4318 79.8002 71.739 80.8946C75.2351 83.9346 75.8127 84.117 77.1199 82.8098C77.7583 82.1714 77.8495 81.8674 77.6975 80.8946C77.5151 79.7394 77.5455 79.7394 78.6703 79.5266C80.0991 79.2834 84.3247 79.2834 85.7839 79.5266C86.8783 79.709 86.8783 79.7394 86.8479 81.077C86.7871 82.2322 86.9087 82.5362 87.6079 83.053C88.7631 83.9346 89.4927 83.6306 92.4719 81.1074C95.5423 78.493 98.7951 76.4866 99.2207 76.9122C99.7375 77.429 99.5551 82.0498 98.9775 84.0562C98.6735 85.0594 97.8831 86.9138 97.2447 88.1603C96.2111 90.1363 96.0895 90.5923 96.3327 91.2915C96.5151 91.7475 96.9711 92.2643 97.3967 92.4467C98.6431 93.0243 98.8559 96.0339 97.8527 99.2867C97.3359 100.989 96.9103 101.627 95.4511 103.117C87.9119 110.656 71.2222 109.015 66.9662 100.351C66.2062 98.8611 66.115 98.2835 66.115 95.7907C66.115 93.6323 66.2062 92.9027 66.5406 92.7811C67.331 92.5075 68.091 91.5043 68.091 90.7139C68.091 90.2883 67.483 88.7075 66.7534 87.2482C65.203 84.1474 64.595 81.1682 64.899 78.4018C65.1422 76.3042 65.0814 76.3346 67.7566 77.9154ZM40.123 109.136V134.976H37.0829H34.0429V114.213C34.0429 100.685 33.9213 93.0851 33.7085 92.3251C33.0093 89.8019 30.1821 87.917 27.6285 88.2514C25.9565 88.4643 24.1629 89.7411 23.3421 91.2915L22.6429 92.5683L22.5517 113.788L22.4605 134.976H19.4509H16.4109V109.349C16.4109 95.2435 16.5021 83.6002 16.6237 83.509C16.7149 83.3874 22.0653 83.2962 28.4797 83.2962H40.123V109.136ZM29.1181 93.0851C29.3917 93.3587 29.4829 98.5267 29.4829 114.517V135.584H28.2669H27.0509V114.517C27.0509 92.6899 27.0509 92.7203 28.2669 92.7203C28.5405 92.7203 28.9053 92.8723 29.1181 93.0851ZM56.235 108.893C58.363 110.2 59.6702 112.146 60.3694 115.034L60.8862 117.314L59.9134 118.439C59.3662 119.047 58.7582 119.989 58.5758 120.476L58.2718 121.388L57.8766 120.658C57.2686 119.564 56.9038 118.165 56.387 114.669C55.8702 111.264 55.5358 110.352 54.1678 108.893C53.2862 107.951 53.2862 107.92 53.9246 107.92C54.2894 107.92 55.323 108.376 56.235 108.893ZM73.9583 111.112C79.1567 112.784 85.5103 112.784 90.4655 111.112C91.7119 110.687 92.8367 110.352 92.9887 110.352C93.7791 110.352 95.7551 115.277 95.7551 117.192C95.7551 118.682 96.9711 119.898 98.7039 120.172C99.4031 120.293 100.406 120.749 100.923 121.205C101.866 121.996 101.896 122.087 101.744 123.698C101.622 124.64 100.832 127.65 99.9199 130.416L98.2783 135.432L96.8799 135.524L95.4511 135.615V130.021C95.4511 125.127 95.3903 124.336 94.9343 123.789C94.0527 122.756 92.9279 122.664 91.9247 123.516L91.0431 124.276L90.9519 129.93L90.8607 135.584H89.3711H87.8815L87.7903 129.93L87.6991 124.276L86.8175 123.516C85.8143 122.664 84.6895 122.756 83.8383 123.789C83.3519 124.336 83.2911 125.127 83.2911 129.991V135.584H82.2271H81.1631V130.143C81.1631 127.133 81.0719 124.458 80.9807 124.184C80.8591 123.941 80.3727 123.485 79.8863 123.242C79.1567 122.877 78.7919 122.847 78.1231 123.12C76.7855 123.668 76.6031 124.519 76.6031 130.295V135.615L75.0223 135.524L73.411 135.432L73.3198 129.748L73.259 124.063L72.4382 123.424C71.4654 122.664 70.3406 122.816 69.5502 123.789C69.0638 124.336 69.003 125.127 69.003 130.021V135.615L67.5742 135.524L66.1454 135.432L64.5342 130.508C63.6526 127.802 62.8318 124.792 62.7406 123.789C62.5582 122.087 62.5886 121.996 63.531 121.205C64.0478 120.749 65.051 120.293 65.7198 120.202C67.6046 119.898 68.3646 119.047 68.6686 116.888C69.0638 114.213 70.6446 110.352 71.3742 110.352C71.4958 110.352 72.651 110.687 73.9583 111.112Z" fill="#4E4E4E"/>
</svg>
