<svg width="55" height="63" viewBox="0 0 55 63" fill="none" xmlns="http://www.w3.org/2000/svg">
<path d="M0.109704 22.8657C1.42375 29.1867 11.8682 31.407 17.215 26.4907C19.1861 24.6555 19.979 21.7329 19.0501 19.5579C18.2119 17.5415 16.1955 15.8423 13.4767 14.9134C11.5057 14.2338 8.12993 14.2111 6.09089 14.8908C1.9675 16.2275 -0.569978 19.6032 0.109704 22.8657Z" fill="#4E4E4E"/>
<path d="M1.12906 42.4177C2.19389 45.2723 5.13918 47.3114 8.9907 47.8325C15.0625 48.6481 20.7718 44.57 20.2281 39.8349C19.6843 35.281 13.7258 32.1092 8.01649 33.31C5.11652 33.9217 2.3978 35.8248 1.37828 37.9318C0.834535 39.0872 0.698598 41.2849 1.12906 42.4177Z" fill="#4E4E4E"/>
<path d="M13.1367 7.61807C14.0882 10.518 17.1695 13.0102 20.7718 13.8032C22.8108 14.2563 25.6428 14.0071 27.1608 13.2594C31.3748 11.1977 31.8279 6.37199 28.135 2.99624C23.5585 -1.19512 15.7195 -0.945904 13.4539 3.47202C12.8875 4.58216 12.7289 6.39464 13.1367 7.61807Z" fill="#4E4E4E"/>
<path d="M13.7032 59.0018C15.9008 63.8729 24.3062 63.9182 28.7694 59.0924C32.3944 55.1729 31.3069 50.4152 26.4359 48.8066C24.8046 48.2855 21.6328 48.4215 19.7977 49.1238C14.904 51.0042 12.1173 55.5128 13.7032 59.0018Z" fill="#4E4E4E"/>
<path d="M23.8304 33.7405C24.3061 35.9834 25.3936 37.9092 27.3194 39.8802C31.4201 44.1169 37.7412 49.9848 38.7833 50.5512C44.8098 53.8137 52.5129 50.5059 54.1894 43.9357C54.8238 41.4435 54.5519 39.6084 53.034 35.7795C51.7652 32.585 51.7426 32.4944 51.8332 30.7046C51.9238 29.0507 52.0598 28.5975 53.2152 26.1507C54.7105 22.9335 55.0957 21.1437 54.7332 18.9008C54.0988 14.9586 51.516 11.9227 47.6871 10.6313C46.4637 10.2009 45.8747 10.1556 44.0395 10.2235C40.3919 10.4048 39.6896 10.8579 32.6209 17.4961C26.028 23.6812 25.7561 23.9757 24.8046 25.8788C23.5585 28.3483 23.2187 30.9764 23.8304 33.7405Z" fill="#4E4E4E"/>
</svg>
