<svg width="63" height="63" viewBox="0 0 63 63" fill="none" xmlns="http://www.w3.org/2000/svg">
<path d="M21.89 0.344529C21.3609 0.615232 21.1641 0.812107 20.8934 1.34121L20.5488 1.99336V7.71504V13.4244L20.8564 13.7197C21.2379 14.1135 21.7055 14.1135 22.0869 13.7197L22.3945 13.4244V7.83808C22.3945 2.58398 22.4068 2.23945 22.616 2.05488C22.8252 1.85801 23.625 1.8457 31.5246 1.8457C39.7318 1.8457 40.2117 1.85801 40.3963 2.06719C40.5809 2.26406 40.6055 3.18691 40.6301 11.7141C40.667 21.0164 40.667 21.1518 40.9254 21.484C41.0607 21.6686 41.3314 21.9393 41.516 22.0746C41.8482 22.333 41.9836 22.333 51.2859 22.3699C59.8131 22.3945 60.7359 22.4191 60.9328 22.6037C61.142 22.7883 61.1543 23.2682 61.1543 31.5C61.1543 39.818 61.142 40.2117 60.9205 40.4086C60.7236 40.5809 60.4037 40.6055 58.3857 40.5809L56.0848 40.5439L55.7895 39.5596C55.6295 39.0182 55.5064 38.5629 55.4941 38.5383C55.4941 38.526 55.9248 38.5137 56.4539 38.5137C57.1799 38.5137 57.4998 38.4521 57.7951 38.2676C58.5826 37.7877 58.5703 37.8984 58.5703 31.5C58.5703 25.1016 58.5826 25.2123 57.7951 24.7324C57.4137 24.4986 57.1061 24.4863 47.9637 24.4863H38.5137V15.0732C38.5137 4.67578 38.5506 5.16797 37.7385 4.67578C37.357 4.44199 37.0863 4.42969 31.5 4.42969C25.9137 4.42969 25.643 4.44199 25.2615 4.67578C24.4494 5.16797 24.4863 4.67578 24.4863 15.0732V24.4863H15.0486C5.89395 24.4863 5.58633 24.4986 5.20488 24.7324C4.41738 25.2123 4.42969 25.1016 4.42969 31.5C4.42969 37.8984 4.41738 37.7877 5.20488 38.2676C5.58633 38.5014 5.89395 38.5137 15.0486 38.5137H24.4863V47.9514C24.4863 57.1061 24.4986 57.4137 24.7324 57.7951C25.2123 58.5826 25.1016 58.5703 31.5 58.5703C37.8984 58.5703 37.7877 58.5826 38.2676 57.7951C38.4768 57.4629 38.5137 57.1676 38.5137 56.0355V54.6574L39.535 55.0143L40.5439 55.3588L40.5809 58.0289C40.6055 60.3791 40.5809 60.7236 40.4086 60.9205C40.2117 61.142 39.8057 61.1543 31.5 61.1543C23.2682 61.1543 22.7883 61.142 22.6037 60.9328C22.4191 60.7359 22.3945 59.8131 22.3699 51.2859C22.333 41.9836 22.333 41.8482 22.0746 41.516C21.9393 41.3314 21.6686 41.0607 21.484 40.9254C21.1518 40.667 21.0164 40.667 11.7141 40.6301C3.18691 40.6055 2.26406 40.5809 2.06719 40.3963C1.85801 40.2117 1.8457 39.7318 1.8457 31.5C1.8457 23.2682 1.85801 22.7883 2.06719 22.6037C2.26406 22.4191 3.18691 22.3945 11.7141 22.3699C21.0164 22.333 21.1518 22.333 21.484 22.0746C22.2838 21.484 22.333 21.324 22.3699 19.1461C22.4068 17.2635 22.3945 17.1404 22.1484 16.8205C21.7916 16.3652 21.1641 16.3652 20.8072 16.8082C20.5734 17.1035 20.5488 17.3004 20.5488 18.8385V20.5488H11.2711H1.99336L1.34121 20.8934C0.812109 21.1641 0.615234 21.3609 0.344531 21.89L0 22.5422V31.5V40.4578L0.344531 41.11C0.615234 41.6391 0.812109 41.8359 1.34121 42.1066L1.99336 42.4512H11.2711H20.5488V51.7289V61.0066L20.8934 61.6588C21.1641 62.1879 21.3609 62.3848 21.89 62.6555L22.5422 63H31.5H40.4578L41.11 62.6555C41.6391 62.3848 41.8359 62.1879 42.1066 61.6588L42.4512 61.0066V58.3857V55.7771L44.0877 55.7033C47.3484 55.5557 49.957 54.5098 52.1842 52.4303C54.7559 50.0432 56.0971 47.2008 56.3186 43.6447L56.3924 42.4512H58.6934C60.982 42.4512 61.0066 42.4512 61.6588 42.1066C62.1879 41.8359 62.3848 41.6391 62.6555 41.11L63 40.4578V31.5V22.5422L62.6555 21.89C62.3848 21.3609 62.1879 21.1641 61.6588 20.8934L61.0066 20.5488H51.7289H42.4512V11.2711V1.99336L42.1066 1.34121C41.8359 0.812107 41.6391 0.615232 41.11 0.344529L40.4578 -1.90735e-06H31.5H22.5422L21.89 0.344529ZM36.668 15.7008C36.668 26.1475 36.6311 25.7414 37.4678 26.1352C37.8246 26.3074 38.9689 26.332 47.2992 26.332H56.7246V31.5V36.668H55.6295H54.5467L54.1037 36.0035C53.0455 34.4162 51.3105 32.9027 49.4648 31.943C47.4838 30.934 45.9949 30.5771 43.6201 30.5895C42.2297 30.5895 41.6883 30.6387 40.8023 30.8725C38.7475 31.4016 36.791 32.4105 35.499 33.6041C34.8469 34.207 34.773 34.6623 35.2529 35.1299C35.6959 35.5852 36.0404 35.5113 36.9879 34.7607C41.9467 30.8109 49.1449 31.9184 52.6641 37.1725C57.2783 44.0754 52.6395 53.3777 44.3338 53.8576C39.9902 54.116 36.0404 51.7781 34.0348 47.7791C32.7305 45.1951 32.632 41.8113 33.7887 39.0305C34.2809 37.8369 34.2809 37.7877 33.9486 37.357C33.6779 37.0125 33.1611 36.9264 32.7305 37.1602C32.4598 37.3078 31.8568 38.7229 31.4754 40.1133C31.0816 41.5898 31.0693 44.6045 31.4631 46.1057C32.2137 48.9357 34.0102 51.6551 36.1512 53.1932L36.668 53.5623V55.1496V56.7246H31.5H26.332V47.2992C26.332 36.8525 26.3689 37.2586 25.5322 36.8648C25.1754 36.6926 24.0311 36.668 15.7008 36.668H6.27539V31.5V26.332H15.7008C24.0311 26.332 25.1754 26.3074 25.5322 26.1352C26.3689 25.7414 26.332 26.1475 26.332 15.7008V6.27539H31.5H36.668V15.7008Z" fill="#4E4E4E"/>
<path d="M38.0092 36.7049C37.234 37.2217 37.1356 37.5785 37.1848 39.8672C37.2094 41.7744 37.1971 41.9467 36.9141 42.6358C36.6803 43.2387 36.6188 43.5955 36.6188 44.6045C36.6065 46.2287 36.9141 47.0162 37.8861 48.0006C39.0797 49.1819 40.507 49.6864 43.0295 49.7971C46.9793 49.9694 49.6863 48.7512 50.5846 46.401C50.9783 45.392 50.9537 43.7924 50.5477 42.6727C50.2524 41.8852 50.24 41.7498 50.2893 39.8426C50.3508 37.5662 50.2647 37.2217 49.4649 36.6926C49.108 36.4465 48.9234 36.4096 48.3574 36.4588C47.693 36.508 47.6684 36.5203 46.6963 37.5662L45.7119 38.6244L45.1582 38.5137C44.4445 38.366 43.0295 38.366 42.3281 38.5137L41.7744 38.6244L40.9254 37.7016C40.4578 37.1971 39.9287 36.7049 39.7318 36.6065C39.215 36.3358 38.4891 36.3727 38.0092 36.7049ZM40.7531 40.261C41.1223 40.6547 41.3068 40.6793 42.2912 40.4209C43.2018 40.1871 44.2723 40.1871 45.2443 40.4332C45.675 40.544 46.1549 40.5932 46.3025 40.5563C46.4625 40.5194 46.9916 40.0149 47.4838 39.4366C47.976 38.8582 48.419 38.3907 48.4559 38.3907C48.4928 38.3907 48.4805 39.2766 48.4436 40.3594C48.3574 42.1928 48.3697 42.3651 48.6035 42.8326C48.9973 43.5832 49.1326 44.5553 48.9727 45.3305C48.6158 47.0532 46.7332 47.9883 43.6201 47.9883C40.5563 47.9883 38.8582 47.1147 38.4891 45.3674C38.3168 44.5676 38.4399 43.7186 38.8582 42.7957C39.092 42.3159 39.1043 42.0821 39.0428 40.2979L38.9813 38.3291L39.6949 39.1289C40.101 39.5719 40.5686 40.0764 40.7531 40.261Z" fill="#F6A8B5"/>
</svg>
