<svg width="30" height="30" viewBox="0 0 30 30" fill="none" xmlns="http://www.w3.org/2000/svg">
<path d="M14.4316 0.043744C13.9643 0.160837 13.6306 0.382012 11.5346 1.96927L9.4386 3.55653H6.95546C4.18529 3.55653 4.17194 3.56303 3.72471 4.0184C3.3242 4.43473 3.30418 4.54531 3.30418 6.46434V8.20772L2.10266 9.11194C0.687536 10.1788 0.420532 10.426 0.180228 10.9074L0 11.2651V19.7544V28.2436L0.220279 28.6795C0.480608 29.1999 0.961216 29.6422 1.5019 29.8569L1.86903 30H14.9856H28.1022L28.4827 29.8504C29.0167 29.6422 29.484 29.2064 29.751 28.6795L29.9712 28.2436L29.9913 19.891C30.0113 10.6016 30.038 11.1611 29.5574 10.5301C29.3905 10.3089 28.8498 9.85352 27.9887 9.20301L26.6671 8.20772V6.46434C26.6671 4.54531 26.647 4.43473 26.2465 4.0184C25.7993 3.56303 25.7859 3.55653 23.0158 3.55653H20.526L18.4233 1.95626C17.2485 1.07156 16.1538 0.29094 15.9535 0.199868C15.5463 0.0177234 14.8388 -0.0538333 14.4316 0.043744ZM15.6732 1.07156C15.7933 1.13661 16.581 1.71557 17.422 2.35958L18.9573 3.524L16.9681 3.54352C15.8801 3.55002 14.0912 3.55002 12.9964 3.54352L11.0139 3.524L12.5492 2.35958C13.3969 1.72208 14.1245 1.16914 14.1646 1.13011C14.505 0.869899 15.2793 0.843879 15.6732 1.07156ZM25.559 4.63639L25.7325 4.81203V9.47622V14.1469L21.5873 17.4711L17.4421 20.7887L16.7612 20.4309C15.6064 19.8129 15.5397 19.7869 14.9789 19.7869C14.4383 19.7869 14.4583 19.7804 13.0765 20.509L12.5359 20.7952L11.1408 19.6763C10.3731 19.0583 8.50409 17.5621 6.98884 16.3457L4.23869 14.1404V9.47622V4.81203L4.41225 4.63639L4.59247 4.46725H14.9856H25.3788L25.559 4.63639ZM3.30418 11.3627C3.30418 12.4361 3.28415 13.3143 3.25745 13.3143C3.17068 13.3143 1.00127 11.5579 0.981241 11.4733C0.94119 11.2651 1.3417 10.8488 2.24284 10.1528C2.77017 9.74944 3.22408 9.41768 3.25745 9.41768C3.28415 9.41117 3.30418 10.2894 3.30418 11.3627ZM27.7284 10.1593C28.4026 10.6667 28.7564 10.9854 28.8632 11.1676C28.9433 11.3107 29.0033 11.4603 28.99 11.4928C28.9633 11.5709 26.7872 13.3143 26.7205 13.3143C26.6871 13.3143 26.6671 12.4361 26.6671 11.3627C26.6671 10.2894 26.6871 9.41117 26.7071 9.41117C26.7338 9.41117 27.1877 9.74944 27.7284 10.1593ZM6.39475 17.0482C9.24503 19.338 11.5813 21.2245 11.5813 21.2506C11.5813 21.2766 9.2784 22.5061 6.4615 23.9827C3.63793 25.4594 1.2349 26.7279 1.12142 26.793L0.90114 26.9231V19.7869V12.6572L1.05467 12.7743C1.14144 12.8394 3.54448 14.7649 6.39475 17.0482ZM29.0701 19.7804V26.897L23.73 24.0933C20.793 22.5516 18.3966 21.2636 18.4033 21.2376C18.4233 21.192 29.0033 12.6768 29.0567 12.6638C29.0634 12.6638 29.0701 15.8643 29.0701 19.7804ZM22.0012 24.2169C25.7259 26.1685 28.8365 27.8078 28.9166 27.8598C29.0434 27.9379 29.0567 27.9769 28.9967 28.133C28.8899 28.4453 28.5294 28.8031 28.1756 28.9657L27.8352 29.1218H14.9856H2.13603L1.7956 28.9657C1.29497 28.738 0.767637 28.0419 0.987916 27.9053C1.03464 27.8793 4.14524 26.2335 7.91 24.2625C13.3168 21.4197 14.7987 20.6651 14.9923 20.6651C15.1792 20.6651 16.6544 21.4132 22.0012 24.2169Z" fill="#4E4E4E"/>
<path d="M14.2047 6.80203C12.0353 7.1403 10.3064 8.63649 9.69897 10.6921C9.49872 11.3621 9.48537 12.7868 9.66559 13.4438C9.96597 14.4911 10.6936 15.584 11.548 16.2605C12.062 16.6639 13.0031 17.1192 13.6773 17.2818C14.4049 17.4575 15.5664 17.4575 16.294 17.2818C17.3219 17.0281 18.5235 16.3321 18.5235 15.9873C18.5235 15.8052 18.2364 15.5255 18.0495 15.5255C17.9628 15.5255 17.7158 15.6425 17.4888 15.7857C16.6211 16.3386 15.8401 16.5338 14.7387 16.4882C14.1579 16.4622 13.9176 16.4167 13.4771 16.2605C12.102 15.7596 11.1208 14.7643 10.6669 13.4113C10.5267 12.9884 10.4933 12.7608 10.4866 12.1753C10.48 11.3101 10.5667 10.9328 10.9606 10.1327C11.2009 9.64479 11.3544 9.43012 11.7683 9.02029C12.6827 8.12909 13.7107 7.70625 14.9857 7.71276C15.82 7.71276 16.2806 7.81684 17.0483 8.18113C17.7491 8.5194 18.5769 9.2805 18.944 9.93101C19.3512 10.6596 19.4914 11.2125 19.4914 12.1102C19.4847 13.0014 19.3979 13.3853 19.1242 13.652C18.9039 13.8666 18.5702 13.8927 18.2498 13.73C17.8827 13.5479 17.856 13.3787 17.856 11.3621C17.856 9.62527 17.8493 9.5342 17.7224 9.4106C17.4421 9.13739 17.0149 9.31953 16.9481 9.73586L16.9081 9.98306L16.6411 9.80091C16.0203 9.35856 15.0791 9.18292 14.3382 9.37157C13.7641 9.51468 13.4237 9.69032 13.0031 10.0741C12.3423 10.6921 12.082 11.3361 12.1287 12.2794C12.1554 12.7738 12.1888 12.9104 12.4024 13.3332C12.9631 14.4326 14.1846 15.0701 15.3795 14.8814C15.9001 14.7969 16.5543 14.5106 16.9014 14.2049L17.1617 13.9707L17.4087 14.2244C17.7425 14.5757 18.0095 14.6928 18.5368 14.7318C18.9306 14.7578 19.0374 14.7383 19.3512 14.5887C20.0721 14.2439 20.3725 13.6325 20.4392 12.3704C20.5994 9.39759 18.2698 6.90612 15.2193 6.77601C14.8522 6.763 14.3982 6.77601 14.2047 6.80203ZM15.8 10.3669C16.9815 10.8808 17.2952 12.416 16.4141 13.3722C16.0336 13.7886 15.5664 13.9837 14.9857 13.9837C14.4049 13.9837 13.9377 13.7886 13.5572 13.3722C12.6026 12.3379 13.0432 10.7116 14.3982 10.2823C14.7721 10.1652 15.4129 10.2042 15.8 10.3669Z" fill="#4E4E4E"/>
</svg>
