<svg width="39" height="28" viewBox="0 0 39 28" fill="none" xmlns="http://www.w3.org/2000/svg">
<path d="M2.37595 0.0641646C1.51345 0.264677 0.650946 0.96246 0.235968 1.78055L0 2.26178V11.0843V19.9069L0.211557 20.356C0.610262 21.1821 1.35071 21.8077 2.22949 22.0644C2.62819 22.1767 3.75107 22.1927 12.4087 22.1927H22.1403L22.4088 22.8343C23.1655 24.655 24.6546 26.211 26.526 27.1253C27.8442 27.775 28.7474 27.9835 30.2283 27.9995C31.5383 28.0076 32.1649 27.9113 33.2389 27.5504C35.566 26.7564 37.5596 24.8555 38.4383 22.5937C38.8777 21.4869 39.0405 20.4683 38.9917 19.185C38.9021 16.9072 38.0966 15.0866 36.4611 13.4825C35.6067 12.6483 34.8093 12.1029 33.8166 11.6778L33.1169 11.3811L33.0762 6.82544L33.0355 2.26178L32.7995 1.78055C32.4741 1.13089 31.758 0.449148 31.1478 0.208534L30.6758 0.0160417L16.6805 6.9508e-07C8.73081 6.9508e-07 2.55496 0.0240622 2.37595 0.0641646ZM30.4236 1.3314C30.5538 1.37953 29.9272 1.96502 26.6806 4.80428C24.5407 6.68107 21.5219 9.31981 19.9759 10.6753C17.0385 13.2418 16.8676 13.3621 16.2818 13.2579C15.94 13.1937 16.4689 13.6429 8.13682 6.36025C3.47442 2.27782 2.48173 1.37953 2.61192 1.3314C2.81534 1.2512 30.2202 1.2512 30.4236 1.3314ZM31.7743 6.83346V11.0041L30.4154 11.0121C29.2112 11.0202 28.9508 11.0442 28.2348 11.2287C27.1363 11.5174 25.81 12.1831 24.9231 12.897C24.207 13.4584 24.207 13.4584 24.0199 13.314C23.9141 13.2338 23.2957 12.7045 22.6448 12.135L21.4487 11.0923L21.7497 10.8357C21.9125 10.6913 24.1908 8.70224 26.8108 6.40838C31.5546 2.25376 31.5709 2.24574 31.6685 2.45427C31.7417 2.60666 31.7662 3.75359 31.7743 6.83346ZM6.39554 6.55274C9.04001 8.87067 11.2939 10.8357 11.3997 10.9239L11.595 11.0843L7.20109 14.9261C4.23928 17.5087 2.79093 18.8321 2.75025 18.9685C2.64447 19.4096 3.15709 19.8668 3.57206 19.7064C3.69412 19.6663 5.72832 17.9338 8.10427 15.8565C10.4721 13.7792 12.4656 12.0628 12.5226 12.0388C12.5795 12.0147 13.1654 12.4638 13.8326 13.0493C15.3216 14.3567 15.6308 14.5251 16.5177 14.5251C17.4128 14.5251 17.6976 14.3727 19.1785 13.0814C19.8538 12.4879 20.4397 12.0067 20.4722 12.0067C20.5536 12.0067 23.312 14.4128 23.312 14.493C23.312 14.5251 23.133 14.8459 22.9133 15.1988C22.4576 15.9447 22.0833 16.8992 21.8799 17.8296C21.7416 18.4872 21.6846 20.3801 21.7985 20.725L21.8555 20.9094H12.2703C3.14895 20.9094 2.66888 20.9014 2.35968 20.757C1.9447 20.5726 1.60295 20.2357 1.41581 19.8267C1.26934 19.5219 1.26121 19.0808 1.26121 11.1084C1.26121 2.9756 1.27748 2.23772 1.50531 2.31792C1.546 2.33396 3.74294 4.23482 6.39554 6.55274ZM31.4163 14.5331C33.8736 14.9983 35.68 17.1077 35.68 19.5058C35.68 19.8668 35.623 20.348 35.5498 20.5806C35.3219 21.3586 34.4106 22.0323 33.6051 22.0323C33.1901 22.0323 32.588 21.8157 32.2462 21.5511L31.937 21.3024L31.6848 21.4789C31.1071 21.8799 30.269 21.9762 29.5529 21.7115C28.2185 21.2222 27.6001 19.7304 28.2185 18.4872C28.7555 17.4045 29.9923 16.8912 31.1315 17.2761C31.579 17.4205 31.5953 17.4205 31.7743 17.2842C32.0103 17.0917 32.2706 17.0997 32.531 17.3002C32.7426 17.4606 32.7426 17.4686 32.767 18.8722L32.7914 20.2838L33.0599 20.5164C33.4017 20.8212 33.7271 20.8212 34.0689 20.5164L34.3374 20.2838V19.4497C34.3374 18.6236 34.3293 18.5995 33.9956 17.9258C33.4098 16.7628 32.4659 16.0651 31.1152 15.7924C30.5782 15.6801 30.3829 15.6801 29.8215 15.7603C27.1282 16.1453 25.6229 18.8081 26.7783 21.134C27.6733 22.9386 29.8377 23.7487 31.8475 23.0349C32.5473 22.7862 32.71 22.7862 32.9541 23.0349C33.54 23.6043 32.8728 24.2059 31.3512 24.4946C29.5855 24.8234 27.8523 24.278 26.5667 23.0028C25.5415 21.9922 25.0777 20.8854 25.0777 19.5058C25.0777 18.1183 25.5496 17.0115 26.5667 16.0089C27.8849 14.7016 29.5773 14.1883 31.4163 14.5331Z" fill="#4E4E4E"/>
<path d="M29.5786 18.5826C28.8544 19.0558 28.8788 19.9621 29.6111 20.4032C30.3109 20.8283 31.2141 20.307 31.2141 19.4809C31.2141 18.6307 30.2783 18.1174 29.5786 18.5826Z" fill="#4E4E4E"/>
</svg>
