<svg width="90" height="90" viewBox="0 0 90 90" fill="none" xmlns="http://www.w3.org/2000/svg">
<path d="M0 45C0 20.1472 20.1472 0 45 0V0C69.8528 0 90 20.1472 90 45V45C90 69.8528 69.8528 90 45 90H4C1.79086 90 0 88.2091 0 86V45Z" fill="#FFDED3"/>
<path d="M26.7268 25.0001C25.4136 26.6716 23.7421 30.4921 22.9064 33.3574C22.19 36.2228 21.2588 38.8852 20.6379 39.2076C17.4144 40.9029 19.5634 48.4006 21.8318 53.6538C24.4584 59.3845 31.98 65.354 38.9047 67.2643C49.6498 70.1297 61.7082 64.3989 66.9614 54.012C69.7074 48.6394 71.2953 40.3537 68.6328 39.0882C68.0359 38.73 66.6032 35.6259 65.6481 32.1635C63.9766 26.5522 60.7531 21.7766 58.6041 21.7766C58.2459 21.7766 56.6938 22.9705 55.3805 24.4032C53.2315 26.6716 51.56 27.1491 44.6354 27.2685C37.3526 27.2685 35.9199 26.9104 33.6515 24.5226C30.4279 21.0602 29.831 21.0602 26.7268 25.0001ZM33.6515 26.9104C35.9199 29.4176 37.3526 29.6563 44.6354 29.5369C51.56 29.4176 53.4703 28.94 55.9775 26.5522C59.6786 23.0899 61.7082 24.4032 63.7378 32.2829C64.5736 35.3871 66.0063 38.73 66.9614 39.8045C68.0359 40.9984 68.2747 43.0281 67.7971 45.774C63.0215 70.9654 29.1147 72.995 21.9512 48.4006C20.6379 44.222 20.7573 42.9087 22.19 40.6402C23.1451 39.0882 24.5778 35.5065 25.4136 32.5217C26.9656 27.1491 28.6371 24.1644 30.1892 24.1644C30.6667 24.1644 32.2188 25.3583 33.6515 26.9104Z" fill="#FC6643"/>
<path d="M31.5019 41.9534C29.9499 44.9382 29.9499 45.6545 31.5019 45.6545C32.2183 45.6545 32.6958 44.8188 32.6958 43.8637C32.6958 41.3565 36.2776 41.5953 38.1878 44.1025C39.5011 45.8933 39.7399 46.0127 39.8593 44.3412C39.8593 39.8044 33.651 38.0136 31.5019 41.9534Z" fill="#FC6643"/>
<path d="M50.8448 41.1177C50.0091 41.9534 49.4121 43.3861 49.4121 44.3412C49.5315 46.0127 49.7703 45.8933 51.0836 44.1025C52.9938 41.5953 56.5755 41.3565 56.5755 43.8637C56.5755 44.8188 57.1725 45.6545 57.7694 45.6545C59.6797 45.6545 59.2021 43.8637 56.8143 41.7147C54.1877 39.3269 52.755 39.2075 50.8448 41.1177Z" fill="#FC6643"/>
<path d="M54.6177 54.5493C54.4147 54.8836 54.2595 55.3612 53.567 56.0059C52.6 56.9013 50.63 57.4386 49.9734 57.6057C48.3735 57.9878 46.3678 56.6984 46.2006 55.5403C46.1171 54.9553 46.3558 54.2986 46.9886 53.6658C49.4958 51.1586 48.4213 49.2484 44.6008 49.2484C41.4967 49.2484 41.0191 49.6066 41.7354 51.278C43.4069 55.4567 42.9293 57.0088 39.8252 57.3669C37.6762 57.6057 36.3629 57.0088 35.4078 54.9791C34.4526 52.9495 34.0945 52.7107 34.0945 54.2628C33.8557 58.5608 40.1834 61.665 43.1681 58.6802C44.1232 57.7251 45.0784 57.8445 46.8692 58.919C50.3315 61.068 55.728 57.7012 55.728 54.0001C55.7161 52.7346 55.7161 52.7346 54.6177 54.5493Z" fill="#FC6643"/>
</svg>
