<svg width="90" height="90" viewBox="0 0 90 90" fill="none" xmlns="http://www.w3.org/2000/svg">
<path d="M0 45C0 20.1472 20.1472 0 45 0C69.8528 0 90 20.1472 90 45C90 69.8528 69.8528 90 45 90H4C1.79086 90 0 88.2091 0 86V45Z" fill="#C8E2FF"/>
<path d="M20.7508 21.1C18.3508 22.5 18.4508 29.8 20.8508 36.9C21.9508 40.1 22.5508 43.7 22.2508 45.9C20.6508 58 32.0508 70 45.2508 70C49.4508 70 56.3508 67 59.8508 63.7C64.6508 59.2 66.8508 53.6 66.9508 46.5C66.9508 43.2 67.6508 38.6 68.4508 36.3C70.7508 29.8 70.6508 23 68.4508 21.4C67.4508 20.6 65.9508 20 65.2508 20C64.1508 20 57.3508 25.3 55.8508 27.3C55.4508 27.8 52.7508 27.6 49.6508 27C45.3508 26 43.0508 26 39.4508 26.9C34.8508 28.1 34.7508 28 30.8508 24.5C28.7508 22.6 26.5508 21 26.0508 21C25.5508 21 24.5508 20.8 23.7508 20.5C23.0508 20.3 21.6508 20.5 20.7508 21.1ZM29.5508 26.4C34.3508 30.6 34.5508 30.7 37.9508 29.4C42.4508 27.8 46.5508 27.8 51.1508 29.4C54.6508 30.7 54.9508 30.6 57.6508 27.8C61.5508 23.7 65.8508 21.5 67.2508 22.9C68.6508 24.3 68.2508 30.3 66.3508 36.2C65.4508 38.8 64.7508 44 64.6508 47.7C64.4508 53.3 63.9508 55.2 61.6508 58.6C56.7508 65.9 46.3508 69.6 38.4508 67C29.7508 64.1 23.1508 54.3 24.2508 45.9C24.5508 43.2 24.1508 39.9 22.8508 36.3C21.8508 33.2 20.9508 29 20.9508 27C20.9508 20.5 22.9508 20.4 29.5508 26.4Z" fill="#0048FF"/>
<path d="M33.5516 43.5C32.6516 44.4 32.2516 45.6 32.5516 46.2C33.0516 46.9 33.6516 46.7 34.4516 45.7C36.0516 43.5 37.6516 43.6 38.8516 45.7C39.3516 46.7 40.1516 47.1 40.5516 46.7C41.7516 45.5 39.5516 42.5 37.2516 42.2C36.1516 42 34.4516 42.6 33.5516 43.5Z" fill="#0048FF"/>
<path d="M49.1516 43.2C47.7516 44.6 47.5516 47 48.8516 47C49.3516 47 49.9516 46.3 50.3516 45.5C51.0516 43.5 52.9516 43.6 54.5516 45.7C55.7516 47.4 55.8516 47.4 55.9516 45.4C55.9516 42.2 51.5516 40.8 49.1516 43.2Z" fill="#0048FF"/>
<path d="M41.35 51.3999C39.75 52.6999 39.65 53.1999 40.75 54.8999C41.75 56.5999 41.75 56.9999 40.65 56.9999C39.95 56.9999 38.85 56.4999 38.15 55.7999C36.55 54.1999 35.35 55.5999 36.85 57.3999C37.75 58.3999 40.05 58.8999 44.45 58.8999C48.85 58.8999 51.15 58.3999 52.05 57.3999C53.55 55.5999 52.35 54.1999 50.75 55.7999C50.05 56.4999 48.95 56.9999 48.25 56.9999C47.15 56.9999 47.15 56.5999 48.15 54.9999C50.25 51.6999 44.85 48.7999 41.35 51.3999ZM46.45 52.8999C46.75 53.3999 46.55 54.1999 45.95 54.4999C44.45 55.3999 41.65 54.1999 42.45 52.9999C43.25 51.6999 45.65 51.6999 46.45 52.8999Z" fill="#0048FF"/>
</svg>
