<svg width="112" height="104" viewBox="0 0 112 104" fill="none" xmlns="http://www.w3.org/2000/svg">
<path d="M23.9742 0.609155C26.1945 1.22087 28.1656 3.23725 29.2077 5.97863C29.8194 7.56455 30.046 11.0762 29.6382 12.7981C28.0749 19.5043 21.9125 21.9964 17.8118 17.6012C15.9313 15.5621 15.1383 13.3192 15.1383 10.0567C15.1383 7.97236 15.5235 6.31847 16.3844 4.61927C17.993 1.49274 21.1422 -0.183806 23.9742 0.609155Z" fill="#F6A8B5"/>
<path d="M43.5716 1.76464C45.7013 2.73885 47.038 4.34743 48.0348 7.02084C48.7598 9.01457 48.7372 13.0247 47.9895 14.9278C45.7919 20.5918 40.8529 22.359 37.024 18.8699C33.6709 15.8114 32.7873 10.1247 34.985 5.63882C36.7974 1.96855 40.4677 0.314658 43.5716 1.76464Z" fill="#F6A8B5"/>
<path d="M8.11493 13.4325C10.2899 14.1348 12.4875 16.1965 13.575 18.5074C15.5914 22.8121 15.0703 27.2753 12.3063 29.7221C9.8821 31.8518 6.50635 31.4213 3.78763 28.5893C-0.381075 24.33 -0.290451 16.4684 3.92357 13.9989C5.01105 13.3645 7.07275 13.0926 8.11493 13.4325Z" fill="#F6A8B5"/>
<path d="M59.9292 14.2255C64.5737 16.4004 64.5284 24.6925 59.8612 29.0878C56.916 31.8292 53.6308 32.0784 51.2293 29.7222C47.2192 25.78 49.3262 16.9668 54.8996 14.3161C56.6667 13.5005 58.2753 13.4552 59.9292 14.2255Z" fill="#F6A8B5"/>
<path d="M34.2826 24.1261C34.8943 24.2621 36.1857 24.7152 37.1146 25.1457C38.7005 25.8933 39.1763 26.3238 44.4325 31.6479C47.5137 34.7971 50.391 37.8783 50.7988 38.5127C52.0902 40.4158 52.5887 42.2056 52.4754 44.7205C52.4074 46.6462 52.2941 47.0767 51.5691 48.6399C49.6887 52.5594 46.1317 54.9157 42.0989 54.9157C40.4903 54.9157 39.1083 54.5305 36.3216 53.3071C34.1467 52.3555 33.9654 52.3102 31.7904 52.3102L29.5248 52.3329L26.8061 53.6243C22.6374 55.5727 20.032 55.7539 16.7695 54.236C15.0703 53.443 12.9633 51.4946 12.125 49.9766C10.3805 46.7821 10.4485 42.7947 12.261 39.7814C13.3938 37.901 24.1101 26.641 25.6054 25.7347C28.1881 24.1941 31.5639 23.5824 34.2826 24.1261Z" fill="#F6A8B5"/>
<path d="M71.7783 49.229C78.0993 50.5431 80.3196 60.9875 75.4033 66.3343C73.5681 68.3054 70.6455 69.0983 68.4705 68.1694C66.4541 67.3312 64.7549 65.3148 63.826 62.5961C63.1464 60.625 63.1237 57.2493 63.8034 55.2102C65.1401 51.0868 68.5158 48.5493 71.7783 49.229Z" fill="#F6A8B5"/>
<path d="M91.3305 50.2485C94.1852 51.3133 96.2242 54.2586 96.7453 58.1101C97.5609 64.182 93.4828 69.8913 88.7477 69.3475C84.1939 68.8038 81.022 62.8452 82.2228 57.1359C82.8345 54.236 84.7376 51.5172 86.8446 50.4977C88.0001 49.954 90.1977 49.818 91.3305 50.2485Z" fill="#F6A8B5"/>
<path d="M56.5309 62.2562C59.4309 63.2077 61.923 66.2889 62.716 69.8912C63.1691 71.9303 62.9199 74.7623 62.1723 76.2802C60.1106 80.4942 55.2848 80.9474 51.9091 77.2544C47.7177 72.6779 47.9669 64.8389 52.3849 62.5733C53.495 62.0069 55.3075 61.8484 56.5309 62.2562Z" fill="#F6A8B5"/>
<path d="M107.915 62.8226C112.786 65.0202 112.831 73.4256 108.005 77.8888C104.086 81.5138 99.328 80.4263 97.7195 75.5553C97.1984 73.924 97.3343 70.7522 98.0366 68.917C99.9171 64.0233 104.426 61.2367 107.915 62.8226Z" fill="#F6A8B5"/>
<path d="M82.6533 72.9498C84.8962 73.4256 86.822 74.5131 88.7931 76.4388C93.0297 80.5396 98.8977 86.8606 99.4641 87.9028C102.727 93.9293 99.4187 101.632 92.8485 103.309C90.3563 103.943 88.5212 103.671 84.6923 102.153C81.4978 100.885 81.4072 100.862 79.6174 100.953C77.9635 101.043 77.5104 101.179 75.0635 102.335C71.8464 103.83 70.0566 104.215 67.8136 103.853C63.8715 103.218 60.8356 100.635 59.5442 96.8066C59.1137 95.5831 59.0684 94.9941 59.1364 93.1589C59.3176 89.5113 59.7707 88.809 66.4089 81.7403C72.594 75.1474 72.8886 74.8755 74.7917 73.924C77.2612 72.6779 79.8893 72.3381 82.6533 72.9498Z" fill="#F6A8B5"/>
</svg>
