<svg width="50" height="44" viewBox="0 0 50 44" fill="none" xmlns="http://www.w3.org/2000/svg">
<path d="M18.2388 0.0875587C23.2808 1.13572 25.0518 9.46677 21.1303 13.7317C19.6665 15.3039 17.3352 15.9364 15.6003 15.1955C13.992 14.5268 12.6366 12.9185 11.8956 10.7499C11.3535 9.17762 11.3354 6.48494 11.8776 4.85849C12.9438 1.56944 15.6365 -0.454592 18.2388 0.0875587Z" fill="#F6A8B5"/>
<path d="M33.8348 0.900813C36.1118 1.75018 37.7383 4.0995 38.1539 7.17169C38.8045 12.0149 35.5516 16.569 31.7746 16.1353C28.1422 15.7015 25.6122 10.9487 26.57 6.39461C27.0579 4.08143 28.5759 1.91283 30.2566 1.0996C31.1782 0.665881 32.9312 0.557451 33.8348 0.900813Z" fill="#F6A8B5"/>
<path d="M6.07663 10.4787C8.38981 11.2377 10.3777 13.6955 11.0102 16.5689C11.3716 18.1953 11.1729 20.4543 10.5765 21.6651C8.93196 25.0264 5.08269 25.3878 2.39001 22.4422C-0.953257 18.7917 -0.754468 12.5389 2.76951 10.7317C3.65503 10.2799 5.10076 10.1534 6.07663 10.4787Z" fill="#F6A8B5"/>
<path d="M47.0632 10.9307C50.9486 12.6836 50.9848 19.3882 47.1355 22.9483C44.0091 25.8398 40.214 24.9724 38.9309 21.087C38.5153 19.7858 38.6237 17.2558 39.1839 15.792C40.6839 11.8885 44.2802 9.66564 47.0632 10.9307Z" fill="#F6A8B5"/>
<path d="M26.9133 19.0086C28.7024 19.3881 30.2385 20.2556 31.8108 21.7917C35.1902 25.0626 39.8707 30.1046 40.3225 30.9359C42.9249 35.743 40.2864 41.8874 35.0456 43.2247C33.0577 43.7307 31.5939 43.5138 28.5398 42.303C25.9917 41.291 25.9194 41.273 24.4917 41.3452C23.1725 41.4175 22.8111 41.526 20.8593 42.4476C18.2931 43.6403 16.8655 43.9476 15.0764 43.6584C11.9319 43.1524 9.51028 41.0922 8.4802 38.0381C8.13684 37.0622 8.10069 36.5924 8.15491 35.1286C8.29948 32.219 8.66091 31.6588 13.9559 26.0204C18.8895 20.7616 19.1244 20.5447 20.6425 19.7857C22.6123 18.7918 24.7086 18.5207 26.9133 19.0086Z" fill="#F6A8B5"/>
</svg>
