<svg width="55" height="63" viewBox="0 0 55 63" fill="none" xmlns="http://www.w3.org/2000/svg">
<path d="M54.7505 22.8657C53.4365 29.1867 42.9921 31.407 37.6452 26.4907C35.6742 24.6555 34.8812 21.7329 35.8101 19.5579C36.6484 17.5415 38.6648 15.8423 41.3835 14.9134C43.3546 14.2338 46.7303 14.2111 48.7693 14.8908C52.8927 16.2275 55.4302 19.6032 54.7505 22.8657Z" fill="#4E4E4E"/>
<path d="M53.7312 42.4177C52.6663 45.2723 49.7211 47.3114 45.8695 47.8325C39.7977 48.6481 34.0884 44.57 34.6322 39.8349C35.1759 35.281 41.1344 32.1092 46.8437 33.31C49.7437 33.9217 52.4624 35.8248 53.482 37.9318C54.0257 39.0872 54.1616 41.2849 53.7312 42.4177Z" fill="#4E4E4E"/>
<path d="M41.7235 7.61807C40.772 10.518 37.6908 13.0102 34.0885 13.8032C32.0494 14.2563 29.2174 14.0071 27.6995 13.2594C23.4855 11.1977 23.0323 6.37199 26.7253 2.99624C31.3018 -1.19512 39.1408 -0.945904 41.4064 3.47202C41.9728 4.58216 42.1314 6.39464 41.7235 7.61807Z" fill="#4E4E4E"/>
<path d="M41.157 59.0018C38.9594 63.8729 30.554 63.9182 26.0908 59.0924C22.4658 55.1729 23.5533 50.4152 28.4244 48.8066C30.0556 48.2855 33.2274 48.4215 35.0626 49.1238C39.9563 51.0042 42.743 55.5128 41.157 59.0018Z" fill="#4E4E4E"/>
<path d="M31.0299 33.7405C30.5541 35.9834 29.4666 37.9092 27.5408 39.8802C23.4401 44.1169 17.1191 49.9848 16.0769 50.5512C10.0504 53.8137 2.34735 50.5059 0.670805 43.9357C0.0364363 41.4435 0.308309 39.6084 1.82626 35.7795C3.095 32.585 3.11765 32.4944 3.02703 30.7046C2.93641 29.0507 2.80047 28.5975 1.64501 26.1507C0.149716 22.9335 -0.235436 21.1437 0.12706 18.9008C0.761429 14.9586 3.34421 11.9227 7.17308 10.6313C8.3965 10.2009 8.98556 10.1556 10.8207 10.2235C14.4683 10.4048 15.1706 10.8579 22.2393 17.4961C28.8322 23.6812 29.1041 23.9757 30.0556 25.8788C31.3017 28.3483 31.6416 30.9764 31.0299 33.7405Z" fill="#4E4E4E"/>
</svg>
