<svg width="23" height="22" viewBox="0 0 23 22" fill="none" xmlns="http://www.w3.org/2000/svg">
<path d="M3.48809 1.10368C2.39009 1.39821 1.60209 2.14586 1.22809 3.2277L1.07609 3.68082V5.66324C1.07609 7.84957 1.0981 8.04215 1.4551 8.79547L1.62509 9.15231L1.4721 9.52613C1.1101 10.4381 0.951095 11.8767 1.0131 13.6779C1.0531 14.7541 1.1321 15.2185 1.4441 16.0568C2.2991 18.3734 5.2671 20.1406 9.2881 20.7297C13.1061 21.2904 17.5071 20.3332 19.8691 18.4357C20.8831 17.6258 21.4041 16.9347 21.7611 15.9435C22.1121 14.9693 22.1461 14.7144 22.1401 12.9982C22.1351 11.1008 22.0331 10.3418 21.6591 9.43551L21.5401 9.15797L21.7101 8.79547C22.0671 8.04215 22.0891 7.84391 22.0891 5.69156C22.0891 3.79977 22.0841 3.72613 21.9591 3.31266C21.7721 2.72359 21.5341 2.32711 21.1211 1.9193C20.4811 1.27926 19.5571 0.945082 18.6111 1.00739C17.8691 1.0527 17.3941 1.25094 15.5871 2.27613C15.0321 2.59332 14.5501 2.82555 14.4261 2.84254C14.3121 2.85953 13.8711 2.83121 13.4521 2.78023C12.4551 2.66129 10.7101 2.66129 9.71309 2.78023C9.29409 2.83121 8.85209 2.85953 8.73909 2.84254C8.61409 2.82555 8.1271 2.58766 7.5551 2.26481C5.6691 1.1943 5.30109 1.04704 4.47409 1.01305C4.03209 0.996058 3.81709 1.01305 3.48809 1.10368ZM5.15409 3.01813C5.37509 3.12008 6.0261 3.47125 6.6091 3.79977C8.2181 4.70602 8.39409 4.75133 9.77009 4.58707C10.7101 4.47379 12.4601 4.47945 13.4401 4.59274C14.7711 4.75133 15.0151 4.68336 16.6011 3.77711C17.8351 3.0691 18.3341 2.84254 18.7021 2.81422C19.3141 2.76324 19.8521 3.04078 20.1181 3.55055L20.2771 3.85074L20.2941 5.49332C20.3051 6.39391 20.2941 7.22086 20.2771 7.32281L20.2431 7.50406L19.9821 7.30582C19.8411 7.1982 19.6311 7.08492 19.5181 7.05094C18.8831 6.88102 18.2491 7.52106 18.4361 8.13844C18.4811 8.29703 18.6681 8.52926 19.1041 8.96539C20.2091 10.0699 20.3841 10.7213 20.3051 13.3664C20.2601 14.8957 20.2201 15.1109 19.8691 15.7113C19.1841 16.9008 18.0051 17.739 16.1591 18.3508C13.8481 19.1154 11.4121 19.2853 8.97709 18.8549C7.42509 18.5773 5.77109 17.9713 4.84809 17.3482C3.97609 16.7535 3.3241 15.9605 3.0241 15.1166C2.9161 14.8221 2.8941 14.6068 2.8601 13.3664C2.7801 10.7156 2.95609 10.0699 4.06009 8.97106C4.50209 8.52926 4.68409 8.30836 4.72909 8.1441C4.91609 7.52106 4.2871 6.88102 3.6471 7.05094C3.5341 7.08492 3.32409 7.1982 3.18309 7.30582L2.92209 7.50406L2.8881 7.32281C2.8711 7.22086 2.8601 6.39391 2.8711 5.49332L2.8881 3.85074L3.0411 3.55621C3.4321 2.81988 4.27009 2.60465 5.15409 3.01813Z" fill="#F6A8B5"/>
<path d="M3.48809 1.10368C2.39009 1.39821 1.60209 2.14586 1.22809 3.2277L1.07609 3.68082V5.66324C1.07609 7.84957 1.0981 8.04215 1.4551 8.79547L1.62509 9.15231L1.4721 9.52613C1.1101 10.4381 0.951095 11.8767 1.0131 13.6779C1.0531 14.7541 1.1321 15.2185 1.4441 16.0568C2.2991 18.3734 5.2671 20.1406 9.2881 20.7297C13.1061 21.2904 17.5071 20.3332 19.8691 18.4357C20.8831 17.6258 21.4041 16.9347 21.7611 15.9435C22.1121 14.9693 22.1461 14.7144 22.1401 12.9982C22.1351 11.1008 22.0331 10.3418 21.6591 9.43551L21.5401 9.15797L21.7101 8.79547C22.0671 8.04215 22.0891 7.84391 22.0891 5.69156C22.0891 3.79977 22.0841 3.72613 21.9591 3.31266C21.7721 2.72359 21.5341 2.32711 21.1211 1.9193C20.4811 1.27926 19.5571 0.945082 18.6111 1.00739C17.8691 1.0527 17.3941 1.25094 15.5871 2.27613C15.0321 2.59332 14.5501 2.82555 14.4261 2.84254C14.3121 2.85953 13.8711 2.83121 13.4521 2.78023C12.4551 2.66129 10.7101 2.66129 9.71309 2.78023C9.29409 2.83121 8.85209 2.85953 8.73909 2.84254C8.61409 2.82555 8.1271 2.58766 7.5551 2.26481C5.6691 1.1943 5.30109 1.04704 4.47409 1.01305C4.03209 0.996058 3.81709 1.01305 3.48809 1.10368ZM5.15409 3.01813C5.37509 3.12008 6.0261 3.47125 6.6091 3.79977C8.2181 4.70602 8.39409 4.75133 9.77009 4.58707C10.7101 4.47379 12.4601 4.47945 13.4401 4.59274C14.7711 4.75133 15.0151 4.68336 16.6011 3.77711C17.8351 3.0691 18.3341 2.84254 18.7021 2.81422C19.3141 2.76324 19.8521 3.04078 20.1181 3.55055L20.2771 3.85074L20.2941 5.49332C20.3051 6.39391 20.2941 7.22086 20.2771 7.32281L20.2431 7.50406L19.9821 7.30582C19.8411 7.1982 19.6311 7.08492 19.5181 7.05094C18.8831 6.88102 18.2491 7.52106 18.4361 8.13844C18.4811 8.29703 18.6681 8.52926 19.1041 8.96539C20.2091 10.0699 20.3841 10.7213 20.3051 13.3664C20.2601 14.8957 20.2201 15.1109 19.8691 15.7113C19.1841 16.9008 18.0051 17.739 16.1591 18.3508C13.8481 19.1154 11.4121 19.2853 8.97709 18.8549C7.42509 18.5773 5.77109 17.9713 4.84809 17.3482C3.97609 16.7535 3.3241 15.9605 3.0241 15.1166C2.9161 14.8221 2.8941 14.6068 2.8601 13.3664C2.7801 10.7156 2.95609 10.0699 4.06009 8.97106C4.50209 8.52926 4.68409 8.30836 4.72909 8.1441C4.91609 7.52106 4.2871 6.88102 3.6471 7.05094C3.5341 7.08492 3.32409 7.1982 3.18309 7.30582L2.92209 7.50406L2.8881 7.32281C2.8711 7.22086 2.8601 6.39391 2.8711 5.49332L2.8881 3.85074L3.0411 3.55621C3.4321 2.81988 4.27009 2.60465 5.15409 3.01813Z" stroke="#F6A8B5"/>
<path d="M12.8329 5.02197C14.5379 4.59577 15.9419 3.38949 17.6609 3.09051C18.1599 3.00374 18.6309 2.8694 18.9759 3.30061C19.3869 3.81372 19.4059 4.64601 19.2839 5.26549C19.0839 6.28522 18.5789 7.15072 18.1459 8.07553C17.8099 8.79179 18.3379 9.11519 18.8279 9.54382C19.6329 10.2465 19.4279 11.3932 19.2149 12.3347C19.0609 13.0167 19.0449 13.7667 18.8119 14.4237C18.2659 15.9582 16.6389 16.8332 15.1589 17.2171C13.3859 17.6767 11.5289 17.9573 9.70586 17.7948C8.24886 17.6651 6.87686 17.2237 5.52786 16.6775C4.01886 16.0666 3.57086 14.2357 3.16386 12.7859C2.98886 12.1613 2.93586 11.5129 3.09486 10.876C3.26886 10.1787 3.73486 9.58052 4.00186 8.91592C4.14486 8.5619 4.43186 8.20004 4.44586 7.80814C4.46386 7.3235 4.23286 6.8395 4.04786 6.40431C3.73386 5.67 3.72286 4.90119 4.02386 4.15055C4.21186 3.67919 4.98186 3.57551 5.41586 3.53458C6.00086 3.47925 6.58186 3.66131 6.97186 4.10996C7.86686 5.13995 8.87786 5.50891 10.2409 5.18432C10.7079 5.07302 11.1739 4.96478 11.6439 4.86917C11.6589 4.86616 12.2499 4.66684 12.0929 4.88827C11.6989 5.44639 11.0009 5.84377 10.4269 6.1775C9.72286 6.58668 8.94986 7.00371 8.12086 7.06086C6.83486 7.14942 5.70786 6.47583 4.72586 5.71911C4.54786 5.58266 4.14186 4.92053 3.97086 5.33234C3.71486 5.94867 3.79786 6.83712 3.86086 7.49538C3.87386 7.62354 3.90986 7.75232 3.98086 7.85827" stroke="#F6A8B5" stroke-width="3" stroke-linecap="round"/>
<path d="M6.81785 7.38569C6.73385 7.53754 6.58685 7.69183 6.49085 7.82259C5.67085 8.93627 4.98585 10.1327 4.48285 11.4228C4.38285 11.6786 4.29385 11.9389 4.21985 12.2035C4.16885 12.3892 4.03685 12.7098 4.21585 12.7813C4.77285 13.0041 6.06885 11.8342 6.41185 11.5733C6.73985 11.3241 7.50285 10.5142 7.46285 10.9239C7.41285 11.4333 6.89285 12.004 6.64585 12.4304C6.58085 12.5421 5.85785 13.6627 5.95585 13.7888C6.07985 13.9475 6.19785 13.4677 6.31185 13.3018C8.64085 9.89742 4.33985 16.1769 7.44585 11.6377C8.15885 10.5955 8.87485 9.55477 9.60185 8.52212C9.89585 8.10462 10.6608 6.80469 10.5188 7.29496C10.2238 8.30731 9.51285 9.32053 9.00985 10.2268C8.36285 11.3901 7.60085 12.5311 7.04185 13.7411C6.87385 14.1067 7.60585 13.1637 7.85685 12.8482C8.99285 11.4147 10.0988 9.95461 11.2988 8.57225C11.8438 7.94464 12.2298 7.52127 12.8098 6.96072C12.9818 6.79522 13.3979 6.29556 13.3829 6.53336C13.3569 6.96099 12.9868 7.29373 12.7648 7.66024C12.2158 8.5664 11.8068 9.21328 11.2248 10.1193C10.5608 11.1536 9.87085 12.1717 9.21485 13.211C9.16085 13.2961 9.02885 13.5632 9.09585 13.488C9.28285 13.2765 10.1719 12.1515 10.2029 12.1128C11.5759 10.3959 12.9679 8.69974 14.4389 7.06577C14.6279 6.85582 15.4898 5.91922 15.7518 5.63807C15.9038 5.47409 16.0079 5.22938 16.2199 5.1558C16.2579 5.14254 16.1938 5.23298 16.1738 5.26801C16.0018 5.5693 15.5428 6.24867 15.4178 6.43548C14.4018 7.95253 13.3679 9.45686 12.3709 10.986C12.2629 11.1515 11.8178 11.8336 11.6568 12.108C11.6358 12.1446 11.5718 12.2523 11.6018 12.2226C11.6778 12.1479 11.7348 12.0558 11.7978 11.9696C12.8748 10.4905 13.8958 8.97551 15.0188 7.52893C15.6778 6.67948 16.3588 5.78218 17.1268 5.0221C17.1338 5.01517 17.4128 4.7155 17.3508 4.98868C17.3088 5.17773 16.9709 6.00879 16.9409 6.08213C16.4199 7.32919 15.8019 8.52738 15.2169 9.7445C15.1219 9.94293 14.3538 11.207 14.4908 11.4969C14.5058 11.5289 14.5478 11.4533 14.5698 11.4252C14.7498 11.192 15.0318 10.7118 15.1448 10.518C15.9868 9.07853 16.7649 7.60118 17.5809 6.14659C17.9539 5.47987 18.4019 4.78442 18.5809 4.02892C18.6569 3.71079 18.2088 4.56851 18.0558 4.85737C17.3728 6.14442 16.7828 7.49417 16.7638 8.97573C16.7568 9.56604 16.9969 9.87152 17.1649 10.3939C17.5099 11.4646 16.5458 12.3879 15.7848 12.9723C14.2258 14.1699 12.5409 14.7909 10.5809 14.4716C9.66885 14.3231 8.81185 14.0114 7.98485 13.6098C7.86785 13.5525 8.17385 13.7949 8.28585 13.8628C9.15685 14.39 10.1889 14.6161 11.1769 14.8011C12.7529 15.096 15.2168 15.5692 16.5438 14.3379C16.6398 14.2497 17.1109 13.6883 17.0079 13.5023C16.8999 13.3098 15.3318 14.0934 15.2648 14.1231C13.2808 14.9955 11.2199 16.2288 8.96885 15.6534C8.22985 15.4646 7.55485 15.0487 7.01385 14.517C6.84385 14.3507 6.37185 13.9068 6.60785 13.9321C6.85185 13.9582 7.28485 14.2499 7.47185 14.3427C8.39285 14.798 9.29685 15.2495 10.3419 15.3263C12.4979 15.4849 15.1108 14.624 15.9758 12.4518C16.6038 10.8769 14.1578 11.9542 13.6868 12.2203C12.8488 12.693 12.1248 13.3119 11.3248 13.839C10.9568 14.0821 10.7289 14.0649 10.9289 13.5525C11.3369 12.5068 12.5789 11.0823 13.6649 10.6899C14.8569 10.2594 13.6629 12.7876 13.5219 13.1012" stroke="#F6A8B5" stroke-width="3" stroke-linecap="round"/>
</svg>
