<svg width="130" height="20" viewBox="0 0 130 20" fill="none" xmlns="http://www.w3.org/2000/svg">
<path d="M2.48842 0.103004C1.3896 0.397535 0.60229 1.14519 0.228462 2.22703L0.0755326 2.68015V4.66257C0.0755326 6.8489 0.0981888 7.04148 0.455025 7.7948L0.624947 8.15164L0.472017 8.52547C0.109517 9.43738 -0.0490768 10.8761 0.0132279 12.6772C0.0528763 13.7534 0.132173 14.2178 0.443697 15.0561C1.29897 17.3727 4.26694 19.1399 8.28842 19.729C12.106 20.2897 16.507 19.3325 18.8689 17.435C19.8828 16.6251 20.4039 15.9341 20.7607 14.9428C21.1119 13.9686 21.1458 13.7137 21.1402 11.9975C21.1345 10.1001 21.0326 9.34109 20.6587 8.43484L20.5398 8.1573L20.7097 7.7948C21.0665 7.04148 21.0892 6.84324 21.0892 4.6909C21.0892 2.7991 21.0835 2.72547 20.9589 2.31199C20.772 1.72293 20.5341 1.32644 20.1206 0.918629C19.4806 0.278589 18.5574 -0.0555897 17.6115 0.00671577C16.8695 0.0520267 16.3937 0.250269 14.5869 1.27547C14.0318 1.59265 13.5503 1.82488 13.4257 1.84187C13.3124 1.85886 12.8706 1.83054 12.4515 1.77957C11.4546 1.66062 9.7101 1.66062 8.71323 1.77957C8.29409 1.83054 7.85229 1.85886 7.73901 1.84187C7.6144 1.82488 7.12729 1.58699 6.55522 1.26414C4.66909 0.193628 4.30092 0.0463638 3.47397 0.0123787C3.03217 -0.00461388 2.81694 0.0123787 2.48842 0.103004ZM4.15366 2.01746C4.37456 2.11941 5.02592 2.47058 5.60932 2.7991C7.21792 3.70535 7.3935 3.75066 8.76987 3.5864C9.7101 3.47312 11.4603 3.47879 12.4402 3.59207C13.7712 3.75066 14.0148 3.68269 15.6007 2.77644C16.8355 2.06843 17.3339 1.84187 17.7021 1.81355C18.3138 1.76258 18.8519 2.04011 19.1181 2.54988L19.2767 2.85007L19.2937 4.49265C19.305 5.39324 19.2937 6.22019 19.2767 6.32215L19.2427 6.5034L18.9822 6.30515C18.8406 6.19754 18.631 6.08425 18.5177 6.05027C17.8833 5.88035 17.249 6.52039 17.4359 7.13777C17.4812 7.29636 17.6681 7.52859 18.1042 7.96472C19.2087 9.06922 19.3843 9.72058 19.305 12.3657C19.2597 13.895 19.2201 14.1102 18.8689 14.7106C18.1835 15.9001 17.0054 16.7384 15.1589 17.3501C12.848 18.1147 10.4124 18.2846 7.9769 17.8542C6.42495 17.5766 4.77104 16.9706 3.8478 16.3475C2.97553 15.7528 2.32417 14.9598 2.02397 14.1159C1.91635 13.8214 1.8937 13.6061 1.85971 12.3657C1.78042 9.71492 1.956 9.06922 3.06049 7.97039C3.50229 7.52859 3.68354 7.30769 3.72885 7.14343C3.91577 6.52039 3.28706 5.88035 2.64702 6.05027C2.53374 6.08425 2.32417 6.19754 2.18256 6.30515L1.92202 6.5034L1.88803 6.32215C1.87104 6.22019 1.85971 5.39324 1.87104 4.49265L1.88803 2.85007L2.04096 2.55554C2.43178 1.81922 3.27006 1.60398 4.15366 2.01746Z" fill="#F6A8B5"/>
<path d="M2.48842 0.103004C1.3896 0.397535 0.60229 1.14519 0.228462 2.22703L0.0755326 2.68015V4.66257C0.0755326 6.8489 0.0981888 7.04148 0.455025 7.7948L0.624947 8.15164L0.472017 8.52547C0.109517 9.43738 -0.0490768 10.8761 0.0132279 12.6772C0.0528763 13.7534 0.132173 14.2178 0.443697 15.0561C1.29897 17.3727 4.26694 19.1399 8.28842 19.729C12.106 20.2897 16.507 19.3325 18.8689 17.435C19.8828 16.6251 20.4039 15.9341 20.7607 14.9428C21.1119 13.9686 21.1458 13.7137 21.1402 11.9975C21.1345 10.1001 21.0326 9.34109 20.6587 8.43484L20.5398 8.1573L20.7097 7.7948C21.0665 7.04148 21.0892 6.84324 21.0892 4.6909C21.0892 2.7991 21.0835 2.72547 20.9589 2.31199C20.772 1.72293 20.5341 1.32644 20.1206 0.918629C19.4806 0.278589 18.5574 -0.0555897 17.6115 0.00671577C16.8695 0.0520267 16.3937 0.250269 14.5869 1.27547C14.0318 1.59265 13.5503 1.82488 13.4257 1.84187C13.3124 1.85886 12.8706 1.83054 12.4515 1.77957C11.4546 1.66062 9.7101 1.66062 8.71323 1.77957C8.29409 1.83054 7.85229 1.85886 7.73901 1.84187C7.6144 1.82488 7.12729 1.58699 6.55522 1.26414C4.66909 0.193628 4.30092 0.0463638 3.47397 0.0123787C3.03217 -0.00461388 2.81694 0.0123787 2.48842 0.103004ZM4.15366 2.01746C4.37456 2.11941 5.02592 2.47058 5.60932 2.7991C7.21792 3.70535 7.3935 3.75066 8.76987 3.5864C9.7101 3.47312 11.4603 3.47879 12.4402 3.59207C13.7712 3.75066 14.0148 3.68269 15.6007 2.77644C16.8355 2.06843 17.3339 1.84187 17.7021 1.81355C18.3138 1.76258 18.8519 2.04011 19.1181 2.54988L19.2767 2.85007L19.2937 4.49265C19.305 5.39324 19.2937 6.22019 19.2767 6.32215L19.2427 6.5034L18.9822 6.30515C18.8406 6.19754 18.631 6.08425 18.5177 6.05027C17.8833 5.88035 17.249 6.52039 17.4359 7.13777C17.4812 7.29636 17.6681 7.52859 18.1042 7.96472C19.2087 9.06922 19.3843 9.72058 19.305 12.3657C19.2597 13.895 19.2201 14.1102 18.8689 14.7106C18.1835 15.9001 17.0054 16.7384 15.1589 17.3501C12.848 18.1147 10.4124 18.2846 7.9769 17.8542C6.42495 17.5766 4.77104 16.9706 3.8478 16.3475C2.97553 15.7528 2.32417 14.9598 2.02397 14.1159C1.91635 13.8214 1.8937 13.6061 1.85971 12.3657C1.78042 9.71492 1.956 9.06922 3.06049 7.97039C3.50229 7.52859 3.68354 7.30769 3.72885 7.14343C3.91577 6.52039 3.28706 5.88035 2.64702 6.05027C2.53374 6.08425 2.32417 6.19754 2.18256 6.30515L1.92202 6.5034L1.88803 6.32215C1.87104 6.22019 1.85971 5.39324 1.87104 4.49265L1.88803 2.85007L2.04096 2.55554C2.43178 1.81922 3.27006 1.60398 4.15366 2.01746Z" stroke="#F6A8B5"/>
<path d="M29.4884 0.103004C28.3896 0.397535 27.6023 1.14519 27.2285 2.22703L27.0755 2.68015V4.66257C27.0755 6.8489 27.0982 7.04148 27.455 7.7948L27.6249 8.15164L27.472 8.52547C27.1095 9.43738 26.9509 10.8761 27.0132 12.6772C27.0529 13.7534 27.1322 14.2178 27.4437 15.0561C28.299 17.3727 31.2669 19.1399 35.2884 19.729C39.106 20.2897 43.507 19.3325 45.8689 17.435C46.8828 16.6251 47.4039 15.9341 47.7607 14.9428C48.1119 13.9686 48.1458 13.7137 48.1402 11.9975C48.1345 10.1001 48.0326 9.34109 47.6587 8.43484L47.5398 8.1573L47.7097 7.7948C48.0665 7.04148 48.0892 6.84324 48.0892 4.6909C48.0892 2.7991 48.0835 2.72547 47.9589 2.31199C47.772 1.72293 47.5341 1.32644 47.1206 0.918629C46.4806 0.278589 45.5574 -0.0555897 44.6115 0.00671577C43.8695 0.0520267 43.3937 0.250269 41.5869 1.27547C41.0318 1.59265 40.5503 1.82488 40.4257 1.84187C40.3124 1.85886 39.8706 1.83054 39.4515 1.77957C38.4546 1.66062 36.7101 1.66062 35.7132 1.77957C35.2941 1.83054 34.8523 1.85886 34.739 1.84187C34.6144 1.82488 34.1273 1.58699 33.5552 1.26414C31.6691 0.193628 31.3009 0.0463638 30.474 0.0123787C30.0322 -0.00461388 29.8169 0.0123787 29.4884 0.103004ZM31.1537 2.01746C31.3746 2.11941 32.0259 2.47058 32.6093 2.7991C34.2179 3.70535 34.3935 3.75066 35.7699 3.5864C36.7101 3.47312 38.4603 3.47879 39.4402 3.59207C40.7712 3.75066 41.0148 3.68269 42.6007 2.77644C43.8355 2.06843 44.3339 1.84187 44.7021 1.81355C45.3138 1.76258 45.8519 2.04011 46.1181 2.54988L46.2767 2.85007L46.2937 4.49265C46.305 5.39324 46.2937 6.22019 46.2767 6.32215L46.2427 6.5034L45.9822 6.30515C45.8406 6.19754 45.631 6.08425 45.5177 6.05027C44.8833 5.88035 44.249 6.52039 44.4359 7.13777C44.4812 7.29636 44.6681 7.52859 45.1042 7.96472C46.2087 9.06922 46.3843 9.72058 46.305 12.3657C46.2597 13.895 46.2201 14.1102 45.8689 14.7106C45.1835 15.9001 44.0054 16.7384 42.1589 17.3501C39.848 18.1147 37.4124 18.2846 34.9769 17.8542C33.4249 17.5766 31.771 16.9706 30.8478 16.3475C29.9755 15.7528 29.3242 14.9598 29.024 14.1159C28.9164 13.8214 28.8937 13.6061 28.8597 12.3657C28.7804 9.71492 28.956 9.06922 30.0605 7.97039C30.5023 7.52859 30.6835 7.30769 30.7289 7.14343C30.9158 6.52039 30.2871 5.88035 29.647 6.05027C29.5337 6.08425 29.3242 6.19754 29.1826 6.30515L28.922 6.5034L28.888 6.32215C28.871 6.22019 28.8597 5.39324 28.871 4.49265L28.888 2.85007L29.041 2.55554C29.4318 1.81922 30.2701 1.60398 31.1537 2.01746Z" fill="#F6A8B5"/>
<path d="M29.4884 0.103004C28.3896 0.397535 27.6023 1.14519 27.2285 2.22703L27.0755 2.68015V4.66257C27.0755 6.8489 27.0982 7.04148 27.455 7.7948L27.6249 8.15164L27.472 8.52547C27.1095 9.43738 26.9509 10.8761 27.0132 12.6772C27.0529 13.7534 27.1322 14.2178 27.4437 15.0561C28.299 17.3727 31.2669 19.1399 35.2884 19.729C39.106 20.2897 43.507 19.3325 45.8689 17.435C46.8828 16.6251 47.4039 15.9341 47.7607 14.9428C48.1119 13.9686 48.1458 13.7137 48.1402 11.9975C48.1345 10.1001 48.0326 9.34109 47.6587 8.43484L47.5398 8.1573L47.7097 7.7948C48.0665 7.04148 48.0892 6.84324 48.0892 4.6909C48.0892 2.7991 48.0835 2.72547 47.9589 2.31199C47.772 1.72293 47.5341 1.32644 47.1206 0.918629C46.4806 0.278589 45.5574 -0.0555897 44.6115 0.00671577C43.8695 0.0520267 43.3937 0.250269 41.5869 1.27547C41.0318 1.59265 40.5503 1.82488 40.4257 1.84187C40.3124 1.85886 39.8706 1.83054 39.4515 1.77957C38.4546 1.66062 36.7101 1.66062 35.7132 1.77957C35.2941 1.83054 34.8523 1.85886 34.739 1.84187C34.6144 1.82488 34.1273 1.58699 33.5552 1.26414C31.6691 0.193628 31.3009 0.0463638 30.474 0.0123787C30.0322 -0.00461388 29.8169 0.0123787 29.4884 0.103004ZM31.1537 2.01746C31.3746 2.11941 32.0259 2.47058 32.6093 2.7991C34.2179 3.70535 34.3935 3.75066 35.7699 3.5864C36.7101 3.47312 38.4603 3.47879 39.4402 3.59207C40.7712 3.75066 41.0148 3.68269 42.6007 2.77644C43.8355 2.06843 44.3339 1.84187 44.7021 1.81355C45.3138 1.76258 45.8519 2.04011 46.1181 2.54988L46.2767 2.85007L46.2937 4.49265C46.305 5.39324 46.2937 6.22019 46.2767 6.32215L46.2427 6.5034L45.9822 6.30515C45.8406 6.19754 45.631 6.08425 45.5177 6.05027C44.8833 5.88035 44.249 6.52039 44.4359 7.13777C44.4812 7.29636 44.6681 7.52859 45.1042 7.96472C46.2087 9.06922 46.3843 9.72058 46.305 12.3657C46.2597 13.895 46.2201 14.1102 45.8689 14.7106C45.1835 15.9001 44.0054 16.7384 42.1589 17.3501C39.848 18.1147 37.4124 18.2846 34.9769 17.8542C33.4249 17.5766 31.771 16.9706 30.8478 16.3475C29.9755 15.7528 29.3242 14.9598 29.024 14.1159C28.9164 13.8214 28.8937 13.6061 28.8597 12.3657C28.7804 9.71492 28.956 9.06922 30.0605 7.97039C30.5023 7.52859 30.6835 7.30769 30.7289 7.14343C30.9158 6.52039 30.2871 5.88035 29.647 6.05027C29.5337 6.08425 29.3242 6.19754 29.1826 6.30515L28.922 6.5034L28.888 6.32215C28.871 6.22019 28.8597 5.39324 28.871 4.49265L28.888 2.85007L29.041 2.55554C29.4318 1.81922 30.2701 1.60398 31.1537 2.01746Z" stroke="#F6A8B5"/>
<path d="M56.4884 0.103249C55.3896 0.397779 54.6023 1.14544 54.2285 2.22727L54.0755 2.6804V4.66282C54.0755 6.84915 54.0982 7.04173 54.455 7.79505L54.6249 8.15188L54.472 8.52571C54.1095 9.43762 53.9509 10.8763 54.0132 12.6775C54.0529 13.7536 54.1322 14.2181 54.4437 15.0564C55.299 17.373 58.2669 19.1402 62.2884 19.7292C66.106 20.29 70.507 19.3327 72.8689 17.4353C73.8828 16.6253 74.4039 15.9343 74.7607 14.9431C75.1119 13.9689 75.1458 13.714 75.1402 11.9978C75.1345 10.1003 75.0326 9.34134 74.6587 8.43509L74.5398 8.15755L74.7097 7.79505C75.0665 7.04173 75.0892 6.84348 75.0892 4.69114C75.0892 2.79934 75.0835 2.72571 74.9589 2.31223C74.772 1.72317 74.5341 1.32668 74.1206 0.918873C73.4806 0.278833 72.5574 -0.0553455 71.6115 0.00695992C70.8695 0.0522709 70.3937 0.250513 68.5869 1.27571C68.0318 1.5929 67.5503 1.82512 67.4257 1.84212C67.3124 1.85911 66.8706 1.83079 66.4515 1.77981C65.4546 1.66087 63.7101 1.66087 62.7132 1.77981C62.2941 1.83079 61.8523 1.85911 61.739 1.84212C61.6144 1.82512 61.1273 1.58723 60.5552 1.26438C58.6691 0.193872 58.3009 0.046608 57.474 0.0126228C57.0322 -0.00436974 56.8169 0.0126228 56.4884 0.103249ZM58.1537 2.0177C58.3746 2.11965 59.0259 2.47083 59.6093 2.79934C61.2179 3.70559 61.3935 3.7509 62.7699 3.58665C63.7101 3.47337 65.4603 3.47903 66.4402 3.59231C67.7712 3.7509 68.0148 3.68294 69.6007 2.77669C70.8355 2.06868 71.3339 1.84212 71.7021 1.8138C72.3138 1.76282 72.8519 2.04036 73.1181 2.55012L73.2767 2.85032L73.2937 4.4929C73.305 5.39348 73.2937 6.22044 73.2767 6.32239L73.2427 6.50364L72.9822 6.3054C72.8406 6.19778 72.631 6.0845 72.5177 6.05051C71.8833 5.88059 71.249 6.52063 71.4359 7.13801C71.4812 7.29661 71.6681 7.52883 72.1042 7.96497C73.2087 9.06946 73.3843 9.72083 73.305 12.3659C73.2597 13.8952 73.2201 14.1105 72.8689 14.7109C72.1835 15.9003 71.0054 16.7386 69.1589 17.3503C66.848 18.115 64.4124 18.2849 61.9769 17.8544C60.4249 17.5769 58.771 16.9708 57.8478 16.3478C56.9755 15.7531 56.3242 14.9601 56.024 14.1161C55.9164 13.8216 55.8937 13.6064 55.8597 12.3659C55.7804 9.71516 55.956 9.06946 57.0605 7.97063C57.5023 7.52883 57.6835 7.30794 57.7289 7.14368C57.9158 6.52063 57.2871 5.88059 56.647 6.05051C56.5337 6.0845 56.3242 6.19778 56.1826 6.3054L55.922 6.50364L55.888 6.32239C55.871 6.22044 55.8597 5.39348 55.871 4.4929L55.888 2.85032L56.041 2.55579C56.4318 1.81946 57.2701 1.60423 58.1537 2.0177Z" fill="#F6A8B5"/>
<path d="M56.4884 0.103249C55.3896 0.397779 54.6023 1.14544 54.2285 2.22727L54.0755 2.6804V4.66282C54.0755 6.84915 54.0982 7.04173 54.455 7.79505L54.6249 8.15188L54.472 8.52571C54.1095 9.43762 53.9509 10.8763 54.0132 12.6775C54.0529 13.7536 54.1322 14.2181 54.4437 15.0564C55.299 17.373 58.2669 19.1402 62.2884 19.7292C66.106 20.29 70.507 19.3327 72.8689 17.4353C73.8828 16.6253 74.4039 15.9343 74.7607 14.9431C75.1119 13.9689 75.1458 13.714 75.1402 11.9978C75.1345 10.1003 75.0326 9.34134 74.6587 8.43509L74.5398 8.15755L74.7097 7.79505C75.0665 7.04173 75.0892 6.84348 75.0892 4.69114C75.0892 2.79934 75.0835 2.72571 74.9589 2.31223C74.772 1.72317 74.5341 1.32668 74.1206 0.918873C73.4806 0.278833 72.5574 -0.0553455 71.6115 0.00695992C70.8695 0.0522709 70.3937 0.250513 68.5869 1.27571C68.0318 1.5929 67.5503 1.82512 67.4257 1.84212C67.3124 1.85911 66.8706 1.83079 66.4515 1.77981C65.4546 1.66087 63.7101 1.66087 62.7132 1.77981C62.2941 1.83079 61.8523 1.85911 61.739 1.84212C61.6144 1.82512 61.1273 1.58723 60.5552 1.26438C58.6691 0.193872 58.3009 0.046608 57.474 0.0126228C57.0322 -0.00436974 56.8169 0.0126228 56.4884 0.103249ZM58.1537 2.0177C58.3746 2.11965 59.0259 2.47083 59.6093 2.79934C61.2179 3.70559 61.3935 3.7509 62.7699 3.58665C63.7101 3.47337 65.4603 3.47903 66.4402 3.59231C67.7712 3.7509 68.0148 3.68294 69.6007 2.77669C70.8355 2.06868 71.3339 1.84212 71.7021 1.8138C72.3138 1.76282 72.8519 2.04036 73.1181 2.55012L73.2767 2.85032L73.2937 4.4929C73.305 5.39348 73.2937 6.22044 73.2767 6.32239L73.2427 6.50364L72.9822 6.3054C72.8406 6.19778 72.631 6.0845 72.5177 6.05051C71.8833 5.88059 71.249 6.52063 71.4359 7.13801C71.4812 7.29661 71.6681 7.52883 72.1042 7.96497C73.2087 9.06946 73.3843 9.72083 73.305 12.3659C73.2597 13.8952 73.2201 14.1105 72.8689 14.7109C72.1835 15.9003 71.0054 16.7386 69.1589 17.3503C66.848 18.115 64.4124 18.2849 61.9769 17.8544C60.4249 17.5769 58.771 16.9708 57.8478 16.3478C56.9755 15.7531 56.3242 14.9601 56.024 14.1161C55.9164 13.8216 55.8937 13.6064 55.8597 12.3659C55.7804 9.71516 55.956 9.06946 57.0605 7.97063C57.5023 7.52883 57.6835 7.30794 57.7289 7.14368C57.9158 6.52063 57.2871 5.88059 56.647 6.05051C56.5337 6.0845 56.3242 6.19778 56.1826 6.3054L55.922 6.50364L55.888 6.32239C55.871 6.22044 55.8597 5.39348 55.871 4.4929L55.888 2.85032L56.041 2.55579C56.4318 1.81946 57.2701 1.60423 58.1537 2.0177Z" stroke="#F6A8B5"/>
<path d="M83.4884 0.103493C82.3896 0.398024 81.6023 1.14568 81.2285 2.22752L81.0755 2.68064V4.66306C81.0755 6.84939 81.0982 7.04197 81.455 7.79529L81.6249 8.15213L81.472 8.52595C81.1095 9.43787 80.9509 10.8765 81.0132 12.6777C81.0529 13.7539 81.1322 14.2183 81.4437 15.0566C82.299 17.3732 85.2669 19.1404 89.2884 19.7295C93.106 20.2902 97.507 19.333 99.8689 17.4355C100.883 16.6256 101.404 15.9345 101.761 14.9433C102.112 13.9691 102.146 13.7142 102.14 11.998C102.135 10.1006 102.033 9.34158 101.659 8.43533L101.54 8.15779L101.71 7.79529C102.067 7.04197 102.089 6.84373 102.089 4.69138C102.089 2.79959 102.084 2.72595 101.959 2.31248C101.772 1.72341 101.534 1.32693 101.121 0.919117C100.481 0.279078 99.5574 -0.0551014 98.6115 0.00720406C97.8695 0.052515 97.3937 0.250757 95.5869 1.27595C95.0318 1.59314 94.5503 1.82537 94.4257 1.84236C94.3124 1.85935 93.8706 1.83103 93.4515 1.78005C92.4546 1.66111 90.7101 1.66111 89.7132 1.78005C89.2941 1.83103 88.8523 1.85935 88.739 1.84236C88.6144 1.82537 88.1273 1.58748 87.5552 1.26463C85.6691 0.194117 85.3009 0.0468521 84.474 0.012867C84.0322 -0.0041256 83.8169 0.012867 83.4884 0.103493ZM85.1537 2.01795C85.3746 2.1199 86.0259 2.47107 86.6093 2.79959C88.2179 3.70584 88.3935 3.75115 89.7699 3.58689C90.7101 3.47361 92.4603 3.47927 93.4402 3.59256C94.7712 3.75115 95.0148 3.68318 96.6007 2.77693C97.8355 2.06892 98.3339 1.84236 98.7021 1.81404C99.3138 1.76306 99.8519 2.0406 100.118 2.55037L100.277 2.85056L100.294 4.49314C100.305 5.39373 100.294 6.22068 100.277 6.32263L100.243 6.50388L99.9822 6.30564C99.8406 6.19802 99.631 6.08474 99.5177 6.05076C98.8833 5.88084 98.249 6.52088 98.4359 7.13826C98.4812 7.29685 98.6681 7.52908 99.1042 7.96521C100.209 9.0697 100.384 9.72107 100.305 12.3662C100.26 13.8955 100.22 14.1107 99.8689 14.7111C99.1835 15.9006 98.0054 16.7388 96.1589 17.3506C93.848 18.1152 91.4124 18.2851 88.9769 17.8547C87.4249 17.5771 85.771 16.9711 84.8478 16.348C83.9755 15.7533 83.3242 14.9603 83.024 14.1164C82.9164 13.8219 82.8937 13.6066 82.8597 12.3662C82.7804 9.71541 82.956 9.0697 84.0605 7.97088C84.5023 7.52908 84.6835 7.30818 84.7289 7.14392C84.9158 6.52088 84.2871 5.88084 83.647 6.05076C83.5337 6.08474 83.3242 6.19802 83.1826 6.30564L82.922 6.50388L82.888 6.32263C82.871 6.22068 82.8597 5.39373 82.871 4.49314L82.888 2.85056L83.041 2.55603C83.4318 1.8197 84.2701 1.60447 85.1537 2.01795Z" fill="#F6A8B5"/>
<path d="M83.4884 0.103493C82.3896 0.398024 81.6023 1.14568 81.2285 2.22752L81.0755 2.68064V4.66306C81.0755 6.84939 81.0982 7.04197 81.455 7.79529L81.6249 8.15213L81.472 8.52595C81.1095 9.43787 80.9509 10.8765 81.0132 12.6777C81.0529 13.7539 81.1322 14.2183 81.4437 15.0566C82.299 17.3732 85.2669 19.1404 89.2884 19.7295C93.106 20.2902 97.507 19.333 99.8689 17.4355C100.883 16.6256 101.404 15.9345 101.761 14.9433C102.112 13.9691 102.146 13.7142 102.14 11.998C102.135 10.1006 102.033 9.34158 101.659 8.43533L101.54 8.15779L101.71 7.79529C102.067 7.04197 102.089 6.84373 102.089 4.69138C102.089 2.79959 102.084 2.72595 101.959 2.31248C101.772 1.72341 101.534 1.32693 101.121 0.919117C100.481 0.279078 99.5574 -0.0551014 98.6115 0.00720406C97.8695 0.052515 97.3937 0.250757 95.5869 1.27595C95.0318 1.59314 94.5503 1.82537 94.4257 1.84236C94.3124 1.85935 93.8706 1.83103 93.4515 1.78005C92.4546 1.66111 90.7101 1.66111 89.7132 1.78005C89.2941 1.83103 88.8523 1.85935 88.739 1.84236C88.6144 1.82537 88.1273 1.58748 87.5552 1.26463C85.6691 0.194117 85.3009 0.0468521 84.474 0.012867C84.0322 -0.0041256 83.8169 0.012867 83.4884 0.103493ZM85.1537 2.01795C85.3746 2.1199 86.0259 2.47107 86.6093 2.79959C88.2179 3.70584 88.3935 3.75115 89.7699 3.58689C90.7101 3.47361 92.4603 3.47927 93.4402 3.59256C94.7712 3.75115 95.0148 3.68318 96.6007 2.77693C97.8355 2.06892 98.3339 1.84236 98.7021 1.81404C99.3138 1.76306 99.8519 2.0406 100.118 2.55037L100.277 2.85056L100.294 4.49314C100.305 5.39373 100.294 6.22068 100.277 6.32263L100.243 6.50388L99.9822 6.30564C99.8406 6.19802 99.631 6.08474 99.5177 6.05076C98.8833 5.88084 98.249 6.52088 98.4359 7.13826C98.4812 7.29685 98.6681 7.52908 99.1042 7.96521C100.209 9.0697 100.384 9.72107 100.305 12.3662C100.26 13.8955 100.22 14.1107 99.8689 14.7111C99.1835 15.9006 98.0054 16.7388 96.1589 17.3506C93.848 18.1152 91.4124 18.2851 88.9769 17.8547C87.4249 17.5771 85.771 16.9711 84.8478 16.348C83.9755 15.7533 83.3242 14.9603 83.024 14.1164C82.9164 13.8219 82.8937 13.6066 82.8597 12.3662C82.7804 9.71541 82.956 9.0697 84.0605 7.97088C84.5023 7.52908 84.6835 7.30818 84.7289 7.14392C84.9158 6.52088 84.2871 5.88084 83.647 6.05076C83.5337 6.08474 83.3242 6.19802 83.1826 6.30564L82.922 6.50388L82.888 6.32263C82.871 6.22068 82.8597 5.39373 82.871 4.49314L82.888 2.85056L83.041 2.55603C83.4318 1.8197 84.2701 1.60447 85.1537 2.01795Z" stroke="#F6A8B5"/>
<path d="M110.488 0.103493C109.39 0.398024 108.602 1.14568 108.228 2.22752L108.076 2.68064V4.66306C108.076 6.84939 108.098 7.04197 108.455 7.79529L108.625 8.15213L108.472 8.52595C108.11 9.43787 107.951 10.8765 108.013 12.6777C108.053 13.7539 108.132 14.2183 108.444 15.0566C109.299 17.3732 112.267 19.1404 116.288 19.7295C120.106 20.2902 124.507 19.333 126.869 17.4355C127.883 16.6256 128.404 15.9345 128.761 14.9433C129.112 13.9691 129.146 13.7142 129.14 11.998C129.135 10.1006 129.033 9.34158 128.659 8.43533L128.54 8.15779L128.71 7.79529C129.067 7.04197 129.089 6.84373 129.089 4.69138C129.089 2.79959 129.084 2.72595 128.959 2.31248C128.772 1.72341 128.534 1.32693 128.121 0.919117C127.481 0.279078 126.557 -0.0551014 125.611 0.00720406C124.869 0.052515 124.394 0.250757 122.587 1.27595C122.032 1.59314 121.55 1.82537 121.426 1.84236C121.312 1.85935 120.871 1.83103 120.452 1.78005C119.455 1.66111 117.71 1.66111 116.713 1.78005C116.294 1.83103 115.852 1.85935 115.739 1.84236C115.614 1.82537 115.127 1.58748 114.555 1.26463C112.669 0.194117 112.301 0.0468521 111.474 0.012867C111.032 -0.0041256 110.817 0.012867 110.488 0.103493ZM112.154 2.01795C112.375 2.1199 113.026 2.47107 113.609 2.79959C115.218 3.70584 115.394 3.75115 116.77 3.58689C117.71 3.47361 119.46 3.47927 120.44 3.59256C121.771 3.75115 122.015 3.68318 123.601 2.77693C124.835 2.06892 125.334 1.84236 125.702 1.81404C126.314 1.76306 126.852 2.0406 127.118 2.55037L127.277 2.85056L127.294 4.49314C127.305 5.39373 127.294 6.22068 127.277 6.32263L127.243 6.50388L126.982 6.30564C126.841 6.19802 126.631 6.08474 126.518 6.05076C125.883 5.88084 125.249 6.52088 125.436 7.13826C125.481 7.29685 125.668 7.52908 126.104 7.96521C127.209 9.0697 127.384 9.72107 127.305 12.3662C127.26 13.8955 127.22 14.1107 126.869 14.7111C126.184 15.9006 125.005 16.7388 123.159 17.3506C120.848 18.1152 118.412 18.2851 115.977 17.8547C114.425 17.5771 112.771 16.9711 111.848 16.348C110.976 15.7533 110.324 14.9603 110.024 14.1164C109.916 13.8219 109.894 13.6066 109.86 12.3662C109.78 9.71541 109.956 9.0697 111.06 7.97088C111.502 7.52908 111.684 7.30818 111.729 7.14392C111.916 6.52088 111.287 5.88084 110.647 6.05076C110.534 6.08474 110.324 6.19802 110.183 6.30564L109.922 6.50388L109.888 6.32263C109.871 6.22068 109.86 5.39373 109.871 4.49314L109.888 2.85056L110.041 2.55603C110.432 1.8197 111.27 1.60447 112.154 2.01795Z" fill="#F6A8B5"/>
<path d="M110.488 0.103493C109.39 0.398024 108.602 1.14568 108.228 2.22752L108.076 2.68064V4.66306C108.076 6.84939 108.098 7.04197 108.455 7.79529L108.625 8.15213L108.472 8.52595C108.11 9.43787 107.951 10.8765 108.013 12.6777C108.053 13.7539 108.132 14.2183 108.444 15.0566C109.299 17.3732 112.267 19.1404 116.288 19.7295C120.106 20.2902 124.507 19.333 126.869 17.4355C127.883 16.6256 128.404 15.9345 128.761 14.9433C129.112 13.9691 129.146 13.7142 129.14 11.998C129.135 10.1006 129.033 9.34158 128.659 8.43533L128.54 8.15779L128.71 7.79529C129.067 7.04197 129.089 6.84373 129.089 4.69138C129.089 2.79959 129.084 2.72595 128.959 2.31248C128.772 1.72341 128.534 1.32693 128.121 0.919117C127.481 0.279078 126.557 -0.0551014 125.611 0.00720406C124.869 0.052515 124.394 0.250757 122.587 1.27595C122.032 1.59314 121.55 1.82537 121.426 1.84236C121.312 1.85935 120.871 1.83103 120.452 1.78005C119.455 1.66111 117.71 1.66111 116.713 1.78005C116.294 1.83103 115.852 1.85935 115.739 1.84236C115.614 1.82537 115.127 1.58748 114.555 1.26463C112.669 0.194117 112.301 0.0468521 111.474 0.012867C111.032 -0.0041256 110.817 0.012867 110.488 0.103493ZM112.154 2.01795C112.375 2.1199 113.026 2.47107 113.609 2.79959C115.218 3.70584 115.394 3.75115 116.77 3.58689C117.71 3.47361 119.46 3.47927 120.44 3.59256C121.771 3.75115 122.015 3.68318 123.601 2.77693C124.835 2.06892 125.334 1.84236 125.702 1.81404C126.314 1.76306 126.852 2.0406 127.118 2.55037L127.277 2.85056L127.294 4.49314C127.305 5.39373 127.294 6.22068 127.277 6.32263L127.243 6.50388L126.982 6.30564C126.841 6.19802 126.631 6.08474 126.518 6.05076C125.883 5.88084 125.249 6.52088 125.436 7.13826C125.481 7.29685 125.668 7.52908 126.104 7.96521C127.209 9.0697 127.384 9.72107 127.305 12.3662C127.26 13.8955 127.22 14.1107 126.869 14.7111C126.184 15.9006 125.005 16.7388 123.159 17.3506C120.848 18.1152 118.412 18.2851 115.977 17.8547C114.425 17.5771 112.771 16.9711 111.848 16.348C110.976 15.7533 110.324 14.9603 110.024 14.1164C109.916 13.8219 109.894 13.6066 109.86 12.3662C109.78 9.71541 109.956 9.0697 111.06 7.97088C111.502 7.52908 111.684 7.30818 111.729 7.14392C111.916 6.52088 111.287 5.88084 110.647 6.05076C110.534 6.08474 110.324 6.19802 110.183 6.30564L109.922 6.50388L109.888 6.32263C109.871 6.22068 109.86 5.39373 109.871 4.49314L109.888 2.85056L110.041 2.55603C110.432 1.8197 111.27 1.60447 112.154 2.01795Z" stroke="#F6A8B5"/>
<path d="M12.24 4.10961C13.9447 3.68342 15.3483 2.47713 17.0674 2.17816C17.5663 2.09138 18.0379 1.95705 18.3829 2.38825C18.7934 2.90136 18.8128 3.73365 18.6909 4.35313C18.4901 5.37286 17.9853 6.23836 17.5521 7.16317C17.2165 7.87943 17.7442 8.20283 18.2349 8.63146C19.0393 9.33418 18.8344 10.4809 18.6216 11.4224C18.4675 12.1044 18.4517 12.8543 18.2182 13.5114C17.6729 15.0459 16.0459 15.9209 14.5653 16.3048C12.7925 16.7644 10.9352 17.045 9.11239 16.8825C7.65604 16.7528 6.28322 16.3114 4.93433 15.7652C3.4257 15.1543 2.97757 13.3234 2.57075 11.8736C2.39546 11.249 2.34229 10.6006 2.50151 9.96366C2.67583 9.26638 3.14118 8.66816 3.40875 8.00356C3.55127 7.64954 3.83882 7.28768 3.85281 6.89578C3.87012 6.41114 3.6397 5.92714 3.45411 5.49195C3.14095 4.75764 3.12997 3.98883 3.43023 3.23819C3.61878 2.76683 4.389 2.66315 4.82212 2.62222C5.40771 2.56689 5.98894 2.74895 6.37875 3.1976C7.27366 4.22759 8.28497 4.59655 9.64718 4.27196C10.1143 4.16066 10.5803 4.05242 11.051 3.95681C11.0658 3.9538 11.6565 3.75448 11.4998 3.97591C11.1051 4.53403 10.4073 4.93141 9.8334 5.26514C9.12971 5.67432 8.35669 6.09135 7.52711 6.1485C6.24166 6.23706 5.1149 5.56347 4.13215 4.80675C3.95493 4.6703 3.54853 4.00817 3.37771 4.41998C3.12205 5.03631 3.20486 5.92476 3.26789 6.58302C3.28016 6.71118 3.31662 6.83996 3.38726 6.94591" stroke="#F6A8B5" stroke-width="3" stroke-linecap="round"/>
<path d="M6.22352 6.47334C6.14 6.6252 5.99267 6.77949 5.89644 6.91024C5.07682 8.02392 4.39183 9.22033 3.88858 10.5105C3.78881 10.7663 3.69915 11.0266 3.62596 11.2912C3.57463 11.4769 3.44237 11.7975 3.62119 11.869C4.17813 12.0918 5.47441 10.9219 5.81765 10.6609C6.14535 10.4118 6.90811 9.60183 6.86813 10.0116C6.81844 10.521 6.29843 11.0917 6.05162 11.518C5.9869 11.6298 5.26352 12.7503 5.36165 12.8765C5.48507 13.0352 5.60385 12.5554 5.71738 12.3895C8.0467 8.98507 3.74566 15.2646 6.85142 10.7254C7.56458 9.6831 8.28021 8.64242 9.0073 7.60977C9.30126 7.19227 10.0667 5.89234 9.92408 6.38261C9.62958 7.39497 8.91888 8.40818 8.41521 9.31441C7.76865 10.4777 7.00677 11.6188 6.44794 12.8288C6.27906 13.1944 7.01178 12.2514 7.26207 11.9358C8.39897 10.5024 9.50501 9.04226 10.7048 7.6599C11.2495 7.03229 11.6355 6.60892 12.216 6.04837C12.3875 5.88287 12.8039 5.38321 12.789 5.62101C12.7623 6.04864 12.3926 6.38138 12.1707 6.74789C11.622 7.65405 11.2123 8.30094 10.6308 9.20698C9.9669 10.2413 9.27658 11.2594 8.62053 12.2987C8.56687 12.3837 8.43441 12.6509 8.50116 12.5757C8.68898 12.3642 9.57799 11.2392 9.60894 11.2005C10.9813 9.48357 12.3733 7.78739 13.8443 6.15342C14.0333 5.94347 14.8958 5.00687 15.1574 4.72572C15.31 4.56174 15.4138 4.31703 15.6253 4.24345C15.6634 4.23019 15.6 4.32063 15.58 4.35566C15.4078 4.65695 14.9482 5.33632 14.8232 5.52313C13.8079 7.04018 12.774 8.54451 11.7768 10.0736C11.6688 10.2392 11.2239 10.9213 11.0629 11.1957C11.0415 11.2323 10.9778 11.34 11.008 11.3103C11.084 11.2356 11.141 11.1435 11.2038 11.0573C12.2809 9.57816 13.3017 8.06316 14.4244 6.61658C15.0837 5.76713 15.7641 4.86983 16.5326 4.10975C16.5396 4.10282 16.8181 3.80315 16.757 4.07633C16.7147 4.26538 16.377 5.09644 16.3464 5.16978C15.8255 6.41684 15.2074 7.61503 14.6226 8.83215C14.5273 9.03059 13.7599 10.2947 13.8968 10.5845C13.912 10.6166 13.9539 10.541 13.9756 10.5129C14.156 10.2797 14.4377 9.79941 14.551 9.60568C15.3925 8.16618 16.171 6.68884 16.9862 5.23424C17.3598 4.56753 17.8071 3.87207 17.9865 3.11657C18.0621 2.79844 17.6145 3.65616 17.4613 3.94502C16.7786 5.23207 16.1884 6.58182 16.1697 8.06339C16.1622 8.65369 16.4027 8.95917 16.5708 9.48154C16.9154 10.5523 15.9517 11.4755 15.1908 12.06C13.6317 13.2576 11.947 13.8786 9.98616 13.5593C9.07412 13.4108 8.218 13.0991 7.39099 12.6974C7.27312 12.6402 7.57972 12.8826 7.69181 12.9505C8.56232 13.4777 9.59472 13.7038 10.583 13.8888C12.1585 14.1837 14.6224 14.6569 15.95 13.4256C16.0451 13.3374 16.5169 12.776 16.4132 12.59C16.3059 12.3975 14.7377 13.1811 14.6704 13.2107C12.6868 14.0832 10.6251 15.3165 8.37462 14.7411C7.63594 14.5523 6.96044 14.1364 6.41929 13.6047C6.25002 13.4384 5.77746 12.9945 6.01342 13.0198C6.25726 13.0459 6.69007 13.3376 6.87768 13.4304C7.79834 13.8857 8.7027 14.3372 9.74741 14.414C11.9038 14.5725 14.5167 13.7117 15.3818 11.5395C16.0091 9.9645 13.5636 11.0419 13.0922 11.3079C12.2547 11.7807 11.5302 12.3995 10.731 12.9266C10.3625 13.1697 10.1348 13.1526 10.3347 12.6401C10.7428 11.5945 11.9844 10.17 13.0708 9.77758C14.2627 9.34702 13.0686 11.8753 12.9275 12.1889" stroke="#F6A8B5" stroke-width="3" stroke-linecap="round"/>
<path d="M38.8334 4.02172C40.5382 3.59552 41.9418 2.38924 43.6609 2.09026C44.1598 2.00349 44.6314 1.86915 44.9763 2.30036C45.3868 2.81347 45.4063 3.64576 45.2843 4.26524C45.0836 5.28497 44.5787 6.15047 44.1455 7.07528C43.81 7.79154 44.3377 8.11494 44.8283 8.54357C45.6327 9.24629 45.4279 10.393 45.2151 11.3345C45.0609 12.0165 45.0451 12.7665 44.8116 13.4235C44.2663 14.958 42.6393 15.833 41.1588 16.2169C39.386 16.6765 37.5286 16.9571 35.7058 16.7946C34.2495 16.6649 32.8767 16.2235 31.5278 15.6773C30.0191 15.0664 29.571 13.2355 29.1642 11.7857C28.9889 11.1611 28.9357 10.5127 29.095 9.87577C29.2693 9.17849 29.7346 8.58027 30.0022 7.91567C30.1447 7.56165 30.4323 7.19979 30.4463 6.80789C30.4636 6.32325 30.2331 5.83925 30.0476 5.40406C29.7344 4.66975 29.7234 3.90094 30.0237 3.1503C30.2122 2.67894 30.9824 2.57526 31.4156 2.53433C32.0012 2.479 32.5824 2.66106 32.9722 3.10971C33.8671 4.1397 34.8784 4.50866 36.2406 4.18407C36.7077 4.07277 37.1738 3.96453 37.6445 3.86892C37.6593 3.86591 38.2499 3.66659 38.0933 3.88802C37.6985 4.44614 37.0008 4.84352 36.4268 5.17725C35.7232 5.58643 34.9501 6.00346 34.1206 6.06061C32.8351 6.14917 31.7083 5.47558 30.7256 4.71886C30.5484 4.58241 30.142 3.92028 29.9712 4.33209C29.7155 4.94842 29.7983 5.83687 29.8613 6.49513C29.8736 6.62329 29.9101 6.75207 29.9807 6.85802" stroke="#F6A8B5" stroke-width="3" stroke-linecap="round"/>
<path d="M32.817 6.38545C32.7334 6.5373 32.5861 6.69159 32.4899 6.82235C31.6703 7.93603 30.9853 9.13243 30.482 10.4226C30.3823 10.6784 30.2926 10.9387 30.2194 11.2033C30.1681 11.389 30.0358 11.7096 30.2146 11.7811C30.7716 12.0039 32.0679 10.834 32.4111 10.5731C32.7388 10.3239 33.5016 9.51394 33.4616 9.92366C33.4119 10.4331 32.8919 11.0038 32.6451 11.4302C32.5803 11.5419 31.857 12.6625 31.9551 12.7886C32.0785 12.9473 32.1973 12.4675 32.3108 12.3016C34.6401 8.89718 30.3391 15.1767 33.4449 10.6375C34.158 9.59521 34.8737 8.55453 35.6007 7.52188C35.8947 7.10438 36.6602 5.80445 36.5175 6.29472C36.223 7.30707 35.5123 8.32029 35.0087 9.22652C34.3621 10.3899 33.6002 11.5309 33.0414 12.7409C32.8725 13.1065 33.6052 12.1635 33.8555 11.848C34.9924 10.4145 36.0985 8.95437 37.2982 7.57201C37.8429 6.9444 38.2289 6.52103 38.8095 5.96048C38.9809 5.79498 39.3973 5.29532 39.3825 5.53312C39.3558 5.96075 38.986 6.29349 38.7641 6.66C38.2155 7.56616 37.8057 8.21304 37.2242 9.11909C36.5603 10.1534 35.87 11.1715 35.214 12.2108C35.1603 12.2959 35.0279 12.563 35.0946 12.4878C35.2824 12.2763 36.1714 11.1513 36.2024 11.1126C37.5748 9.39568 38.9668 7.6995 40.4377 6.06553C40.6267 5.85558 41.4892 4.91898 41.7508 4.63783C41.9034 4.47385 42.0072 4.22914 42.2188 4.15556C42.2569 4.1423 42.1934 4.23274 42.1734 4.26777C42.0013 4.56906 41.5416 5.24843 41.4166 5.43524C40.4013 6.95229 39.3674 8.45662 38.3702 9.98574C38.2622 10.1513 37.8173 10.8334 37.6563 11.1078C37.6349 11.1444 37.5712 11.2521 37.6014 11.2224C37.6775 11.1477 37.7344 11.0556 37.7972 10.9694C38.8744 9.49027 39.8952 7.97527 41.0179 6.52869C41.6772 5.67924 42.3576 4.78194 43.126 4.02186C43.133 4.01493 43.4115 3.71526 43.3504 3.98844C43.3082 4.17749 42.9704 5.00855 42.9398 5.08189C42.4189 6.32895 41.8009 7.52714 41.2161 8.74426C41.1207 8.94269 40.3534 10.2068 40.4903 10.4967C40.5054 10.5287 40.5473 10.4531 40.569 10.425C40.7494 10.1918 41.0312 9.71152 41.1444 9.51779C41.986 8.07829 42.7645 6.60094 43.5796 5.14635C43.9533 4.47963 44.4006 3.78418 44.58 3.02868C44.6555 2.71055 44.208 3.56827 44.0547 3.85713C43.372 5.14418 42.7818 6.49393 42.7631 7.97549C42.7557 8.5658 42.9961 8.87128 43.1642 9.39365C43.5088 10.4644 42.5451 11.3877 41.7843 11.9721C40.2252 13.1697 38.5405 13.7907 36.5796 13.4714C35.6676 13.3229 34.8114 13.0112 33.9844 12.6096C33.8666 12.5523 34.1732 12.7947 34.2853 12.8626C35.1558 13.3898 36.1882 13.6159 37.1765 13.8009C38.7519 14.0958 41.2158 14.569 42.5435 13.3377C42.6386 13.2495 43.1103 12.6881 43.0066 12.5021C42.8993 12.3096 41.3311 13.0932 41.2638 13.1229C39.2802 13.9953 37.2185 15.2286 34.9681 14.6532C34.2294 14.4644 33.5539 14.0485 33.0127 13.5168C32.8435 13.3505 32.3709 12.9066 32.6069 12.9319C32.8507 12.958 33.2835 13.2497 33.4711 13.3425C34.3918 13.7978 35.2961 14.2493 36.3409 14.3261C38.4972 14.4847 41.1101 13.6238 41.9753 11.4516C42.6026 9.87661 40.157 10.954 39.6857 11.2201C38.8482 11.6928 38.1236 12.3117 37.3245 12.8388C36.9559 13.0819 36.7282 13.0647 36.9282 12.5523C37.3362 11.5066 38.5778 10.0821 39.6642 9.68969C40.8562 9.25913 39.6621 11.7874 39.521 12.101" stroke="#F6A8B5" stroke-width="3" stroke-linecap="round"/>
<path d="M65.8334 4.02172C67.5382 3.59552 68.9418 2.38924 70.6609 2.09026C71.1598 2.00349 71.6314 1.86915 71.9763 2.30036C72.3868 2.81347 72.4063 3.64576 72.2843 4.26524C72.0836 5.28497 71.5787 6.15047 71.1455 7.07528C70.81 7.79154 71.3377 8.11494 71.8283 8.54357C72.6327 9.24629 72.4279 10.393 72.2151 11.3345C72.0609 12.0165 72.0451 12.7665 71.8116 13.4235C71.2663 14.958 69.6393 15.833 68.1588 16.2169C66.386 16.6765 64.5286 16.9571 62.7058 16.7946C61.2495 16.6649 59.8767 16.2235 58.5278 15.6773C57.0191 15.0664 56.571 13.2355 56.1642 11.7857C55.9889 11.1611 55.9357 10.5127 56.095 9.87577C56.2693 9.17849 56.7346 8.58027 57.0022 7.91567C57.1447 7.56165 57.4323 7.19979 57.4463 6.80789C57.4636 6.32325 57.2331 5.83925 57.0476 5.40406C56.7344 4.66975 56.7234 3.90094 57.0237 3.1503C57.2122 2.67894 57.9824 2.57526 58.4156 2.53433C59.0012 2.479 59.5824 2.66106 59.9722 3.10971C60.8671 4.1397 61.8784 4.50866 63.2406 4.18407C63.7077 4.07277 64.1738 3.96453 64.6445 3.86892C64.6593 3.86591 65.2499 3.66659 65.0933 3.88802C64.6985 4.44614 64.0008 4.84352 63.4268 5.17725C62.7232 5.58643 61.9501 6.00346 61.1206 6.06061C59.8351 6.14917 58.7083 5.47558 57.7256 4.71886C57.5484 4.58241 57.142 3.92028 56.9712 4.33209C56.7155 4.94842 56.7983 5.83687 56.8613 6.49513C56.8736 6.62329 56.9101 6.75207 56.9807 6.85802" stroke="#F6A8B5" stroke-width="3" stroke-linecap="round"/>
<path d="M59.817 6.38545C59.7334 6.5373 59.5861 6.69159 59.4899 6.82235C58.6703 7.93603 57.9853 9.13243 57.482 10.4226C57.3823 10.6784 57.2926 10.9387 57.2194 11.2033C57.1681 11.389 57.0358 11.7096 57.2146 11.7811C57.7716 12.0039 59.0679 10.834 59.4111 10.5731C59.7388 10.3239 60.5016 9.51394 60.4616 9.92366C60.4119 10.4331 59.8919 11.0038 59.6451 11.4302C59.5803 11.5419 58.857 12.6625 58.9551 12.7886C59.0785 12.9473 59.1973 12.4675 59.3108 12.3016C61.6401 8.89718 57.3391 15.1767 60.4449 10.6375C61.158 9.59521 61.8737 8.55453 62.6007 7.52188C62.8947 7.10438 63.6602 5.80445 63.5175 6.29472C63.223 7.30707 62.5123 8.32029 62.0087 9.22652C61.3621 10.3899 60.6002 11.5309 60.0414 12.7409C59.8725 13.1065 60.6052 12.1635 60.8555 11.848C61.9924 10.4145 63.0985 8.95437 64.2982 7.57201C64.8429 6.9444 65.2289 6.52103 65.8095 5.96048C65.9809 5.79498 66.3973 5.29532 66.3825 5.53312C66.3558 5.96075 65.986 6.29349 65.7641 6.66C65.2155 7.56616 64.8057 8.21304 64.2242 9.11909C63.5603 10.1534 62.87 11.1715 62.214 12.2108C62.1603 12.2959 62.0279 12.563 62.0946 12.4878C62.2824 12.2763 63.1714 11.1513 63.2024 11.1126C64.5748 9.39568 65.9668 7.6995 67.4377 6.06553C67.6267 5.85558 68.4892 4.91898 68.7508 4.63783C68.9034 4.47385 69.0072 4.22914 69.2188 4.15556C69.2569 4.1423 69.1934 4.23274 69.1734 4.26777C69.0013 4.56906 68.5416 5.24843 68.4166 5.43524C67.4013 6.95229 66.3674 8.45662 65.3702 9.98574C65.2622 10.1513 64.8173 10.8334 64.6563 11.1078C64.6349 11.1444 64.5712 11.2521 64.6014 11.2224C64.6775 11.1477 64.7344 11.0556 64.7972 10.9694C65.8744 9.49027 66.8952 7.97527 68.0179 6.52869C68.6772 5.67924 69.3576 4.78194 70.126 4.02186C70.133 4.01493 70.4115 3.71526 70.3504 3.98844C70.3082 4.17749 69.9704 5.00855 69.9398 5.08189C69.4189 6.32895 68.8009 7.52714 68.2161 8.74426C68.1207 8.94269 67.3534 10.2068 67.4903 10.4967C67.5054 10.5287 67.5473 10.4531 67.569 10.425C67.7494 10.1918 68.0312 9.71152 68.1444 9.51779C68.986 8.07829 69.7645 6.60094 70.5796 5.14635C70.9533 4.47963 71.4006 3.78418 71.58 3.02868C71.6555 2.71055 71.208 3.56827 71.0547 3.85713C70.372 5.14418 69.7818 6.49393 69.7631 7.97549C69.7557 8.5658 69.9961 8.87128 70.1642 9.39365C70.5088 10.4644 69.5451 11.3877 68.7843 11.9721C67.2252 13.1697 65.5405 13.7907 63.5796 13.4714C62.6676 13.3229 61.8114 13.0112 60.9844 12.6096C60.8666 12.5523 61.1732 12.7947 61.2853 12.8626C62.1558 13.3898 63.1882 13.6159 64.1765 13.8009C65.7519 14.0958 68.2158 14.569 69.5435 13.3377C69.6386 13.2495 70.1103 12.6881 70.0066 12.5021C69.8993 12.3096 68.3311 13.0932 68.2638 13.1229C66.2802 13.9953 64.2185 15.2286 61.9681 14.6532C61.2294 14.4644 60.5539 14.0485 60.0127 13.5168C59.8435 13.3505 59.3709 12.9066 59.6069 12.9319C59.8507 12.958 60.2835 13.2497 60.4711 13.3425C61.3918 13.7978 62.2961 14.2493 63.3409 14.3261C65.4972 14.4847 68.1101 13.6238 68.9753 11.4516C69.6026 9.87661 67.157 10.954 66.6857 11.2201C65.8482 11.6928 65.1236 12.3117 64.3245 12.8388C63.9559 13.0819 63.7282 13.0647 63.9282 12.5523C64.3362 11.5066 65.5778 10.0821 66.6642 9.68969C67.8562 9.25913 66.6621 11.7874 66.521 12.101" stroke="#F6A8B5" stroke-width="3" stroke-linecap="round"/>
<path d="M92.8334 4.02172C94.5382 3.59552 95.9418 2.38924 97.6609 2.09026C98.1598 2.00349 98.6314 1.86915 98.9763 2.30036C99.3868 2.81347 99.4063 3.64576 99.2843 4.26524C99.0836 5.28497 98.5787 6.15047 98.1455 7.07528C97.81 7.79154 98.3377 8.11494 98.8283 8.54357C99.6327 9.24629 99.4279 10.393 99.2151 11.3345C99.0609 12.0165 99.0451 12.7665 98.8116 13.4235C98.2663 14.958 96.6393 15.833 95.1588 16.2169C93.386 16.6765 91.5286 16.9571 89.7058 16.7946C88.2495 16.6649 86.8767 16.2235 85.5278 15.6773C84.0191 15.0664 83.571 13.2355 83.1642 11.7857C82.9889 11.1611 82.9357 10.5127 83.095 9.87577C83.2693 9.17849 83.7346 8.58027 84.0022 7.91567C84.1447 7.56165 84.4323 7.19979 84.4463 6.80789C84.4636 6.32325 84.2331 5.83925 84.0476 5.40406C83.7344 4.66975 83.7234 3.90094 84.0237 3.1503C84.2122 2.67894 84.9824 2.57526 85.4156 2.53433C86.0012 2.479 86.5824 2.66106 86.9722 3.10971C87.8671 4.1397 88.8784 4.50866 90.2406 4.18407C90.7077 4.07277 91.1738 3.96453 91.6445 3.86892C91.6593 3.86591 92.2499 3.66659 92.0933 3.88802C91.6985 4.44614 91.0008 4.84352 90.4268 5.17725C89.7232 5.58643 88.9501 6.00346 88.1206 6.06061C86.8351 6.14917 85.7083 5.47558 84.7256 4.71886C84.5484 4.58241 84.142 3.92028 83.9712 4.33209C83.7155 4.94842 83.7983 5.83687 83.8613 6.49513C83.8736 6.62329 83.9101 6.75207 83.9807 6.85802" stroke="#F6A8B5" stroke-width="3" stroke-linecap="round"/>
<path d="M86.817 6.38545C86.7334 6.5373 86.5861 6.69159 86.4899 6.82235C85.6703 7.93603 84.9853 9.13243 84.482 10.4226C84.3823 10.6784 84.2926 10.9387 84.2194 11.2033C84.1681 11.389 84.0358 11.7096 84.2146 11.7811C84.7716 12.0039 86.0679 10.834 86.4111 10.5731C86.7388 10.3239 87.5016 9.51394 87.4616 9.92366C87.4119 10.4331 86.8919 11.0038 86.6451 11.4302C86.5803 11.5419 85.857 12.6625 85.9551 12.7886C86.0785 12.9473 86.1973 12.4675 86.3108 12.3016C88.6401 8.89718 84.3391 15.1767 87.4449 10.6375C88.158 9.59521 88.8737 8.55453 89.6007 7.52188C89.8947 7.10438 90.6602 5.80445 90.5175 6.29472C90.223 7.30707 89.5123 8.32029 89.0087 9.22652C88.3621 10.3899 87.6002 11.5309 87.0414 12.7409C86.8725 13.1065 87.6052 12.1635 87.8555 11.848C88.9924 10.4145 90.0985 8.95437 91.2982 7.57201C91.8429 6.9444 92.2289 6.52103 92.8095 5.96048C92.9809 5.79498 93.3973 5.29532 93.3825 5.53312C93.3558 5.96075 92.986 6.29349 92.7641 6.66C92.2155 7.56616 91.8057 8.21304 91.2242 9.11909C90.5603 10.1534 89.87 11.1715 89.214 12.2108C89.1603 12.2959 89.0279 12.563 89.0946 12.4878C89.2824 12.2763 90.1714 11.1513 90.2024 11.1126C91.5748 9.39568 92.9668 7.6995 94.4377 6.06553C94.6267 5.85558 95.4892 4.91898 95.7508 4.63783C95.9034 4.47385 96.0072 4.22914 96.2188 4.15556C96.2569 4.1423 96.1934 4.23274 96.1734 4.26777C96.0013 4.56906 95.5416 5.24843 95.4166 5.43524C94.4013 6.95229 93.3674 8.45662 92.3702 9.98574C92.2622 10.1513 91.8173 10.8334 91.6563 11.1078C91.6349 11.1444 91.5712 11.2521 91.6014 11.2224C91.6775 11.1477 91.7344 11.0556 91.7972 10.9694C92.8744 9.49027 93.8952 7.97527 95.0179 6.52869C95.6772 5.67924 96.3576 4.78194 97.126 4.02186C97.133 4.01493 97.4115 3.71526 97.3504 3.98844C97.3082 4.17749 96.9704 5.00855 96.9398 5.08189C96.4189 6.32895 95.8009 7.52714 95.2161 8.74426C95.1207 8.94269 94.3534 10.2068 94.4903 10.4967C94.5054 10.5287 94.5473 10.4531 94.569 10.425C94.7494 10.1918 95.0312 9.71152 95.1444 9.51779C95.986 8.07829 96.7645 6.60094 97.5796 5.14635C97.9533 4.47963 98.4006 3.78418 98.58 3.02868C98.6555 2.71055 98.208 3.56827 98.0547 3.85713C97.372 5.14418 96.7818 6.49393 96.7631 7.97549C96.7557 8.5658 96.9961 8.87128 97.1642 9.39365C97.5088 10.4644 96.5451 11.3877 95.7843 11.9721C94.2252 13.1697 92.5405 13.7907 90.5796 13.4714C89.6676 13.3229 88.8114 13.0112 87.9844 12.6096C87.8666 12.5523 88.1732 12.7947 88.2853 12.8626C89.1558 13.3898 90.1882 13.6159 91.1765 13.8009C92.7519 14.0958 95.2158 14.569 96.5435 13.3377C96.6386 13.2495 97.1103 12.6881 97.0066 12.5021C96.8993 12.3096 95.3311 13.0932 95.2638 13.1229C93.2802 13.9953 91.2185 15.2286 88.9681 14.6532C88.2294 14.4644 87.5539 14.0485 87.0127 13.5168C86.8435 13.3505 86.3709 12.9066 86.6069 12.9319C86.8507 12.958 87.2835 13.2497 87.4711 13.3425C88.3918 13.7978 89.2961 14.2493 90.3409 14.3261C92.4972 14.4847 95.1101 13.6238 95.9753 11.4516C96.6026 9.87661 94.157 10.954 93.6857 11.2201C92.8482 11.6928 92.1236 12.3117 91.3245 12.8388C90.9559 13.0819 90.7282 13.0647 90.9282 12.5523C91.3362 11.5066 92.5778 10.0821 93.6642 9.68969C94.8562 9.25913 93.6621 11.7874 93.521 12.101" stroke="#F6A8B5" stroke-width="3" stroke-linecap="round"/>
<path d="M119.833 4.02172C121.538 3.59552 122.942 2.38924 124.661 2.09026C125.16 2.00349 125.631 1.86915 125.976 2.30036C126.387 2.81347 126.406 3.64576 126.284 4.26524C126.084 5.28497 125.579 6.15047 125.146 7.07528C124.81 7.79154 125.338 8.11494 125.828 8.54357C126.633 9.24629 126.428 10.393 126.215 11.3345C126.061 12.0165 126.045 12.7665 125.812 13.4235C125.266 14.958 123.639 15.833 122.159 16.2169C120.386 16.6765 118.529 16.9571 116.706 16.7946C115.249 16.6649 113.877 16.2235 112.528 15.6773C111.019 15.0664 110.571 13.2355 110.164 11.7857C109.989 11.1611 109.936 10.5127 110.095 9.87577C110.269 9.17849 110.735 8.58027 111.002 7.91567C111.145 7.56165 111.432 7.19979 111.446 6.80789C111.464 6.32325 111.233 5.83925 111.048 5.40406C110.734 4.66975 110.723 3.90094 111.024 3.1503C111.212 2.67894 111.982 2.57526 112.416 2.53433C113.001 2.479 113.582 2.66106 113.972 3.10971C114.867 4.1397 115.878 4.50866 117.241 4.18407C117.708 4.07277 118.174 3.96453 118.644 3.86892C118.659 3.86591 119.25 3.66659 119.093 3.88802C118.699 4.44614 118.001 4.84352 117.427 5.17725C116.723 5.58643 115.95 6.00346 115.121 6.06061C113.835 6.14917 112.708 5.47558 111.726 4.71886C111.548 4.58241 111.142 3.92028 110.971 4.33209C110.715 4.94842 110.798 5.83687 110.861 6.49513C110.874 6.62329 110.91 6.75207 110.981 6.85802" stroke="#F6A8B5" stroke-width="3" stroke-linecap="round"/>
<path d="M113.817 6.38545C113.733 6.5373 113.586 6.69159 113.49 6.82235C112.67 7.93603 111.985 9.13243 111.482 10.4226C111.382 10.6784 111.293 10.9387 111.219 11.2033C111.168 11.389 111.036 11.7096 111.215 11.7811C111.772 12.0039 113.068 10.834 113.411 10.5731C113.739 10.3239 114.502 9.51394 114.462 9.92366C114.412 10.4331 113.892 11.0038 113.645 11.4302C113.58 11.5419 112.857 12.6625 112.955 12.7886C113.079 12.9473 113.197 12.4675 113.311 12.3016C115.64 8.89718 111.339 15.1767 114.445 10.6375C115.158 9.59521 115.874 8.55453 116.601 7.52188C116.895 7.10438 117.66 5.80445 117.518 6.29472C117.223 7.30707 116.512 8.32029 116.009 9.22652C115.362 10.3899 114.6 11.5309 114.041 12.7409C113.873 13.1065 114.605 12.1635 114.856 11.848C115.992 10.4145 117.098 8.95437 118.298 7.57201C118.843 6.9444 119.229 6.52103 119.809 5.96048C119.981 5.79498 120.397 5.29532 120.382 5.53312C120.356 5.96075 119.986 6.29349 119.764 6.66C119.215 7.56616 118.806 8.21304 118.224 9.11909C117.56 10.1534 116.87 11.1715 116.214 12.2108C116.16 12.2959 116.028 12.563 116.095 12.4878C116.282 12.2763 117.171 11.1513 117.202 11.1126C118.575 9.39568 119.967 7.6995 121.438 6.06553C121.627 5.85558 122.489 4.91898 122.751 4.63783C122.903 4.47385 123.007 4.22914 123.219 4.15556C123.257 4.1423 123.193 4.23274 123.173 4.26777C123.001 4.56906 122.542 5.24843 122.417 5.43524C121.401 6.95229 120.367 8.45662 119.37 9.98574C119.262 10.1513 118.817 10.8334 118.656 11.1078C118.635 11.1444 118.571 11.2521 118.601 11.2224C118.677 11.1477 118.734 11.0556 118.797 10.9694C119.874 9.49027 120.895 7.97527 122.018 6.52869C122.677 5.67924 123.358 4.78194 124.126 4.02186C124.133 4.01493 124.412 3.71526 124.35 3.98844C124.308 4.17749 123.97 5.00855 123.94 5.08189C123.419 6.32895 122.801 7.52714 122.216 8.74426C122.121 8.94269 121.353 10.2068 121.49 10.4967C121.505 10.5287 121.547 10.4531 121.569 10.425C121.749 10.1918 122.031 9.71152 122.144 9.51779C122.986 8.07829 123.764 6.60094 124.58 5.14635C124.953 4.47963 125.401 3.78418 125.58 3.02868C125.656 2.71055 125.208 3.56827 125.055 3.85713C124.372 5.14418 123.782 6.49393 123.763 7.97549C123.756 8.5658 123.996 8.87128 124.164 9.39365C124.509 10.4644 123.545 11.3877 122.784 11.9721C121.225 13.1697 119.54 13.7907 117.58 13.4714C116.668 13.3229 115.811 13.0112 114.984 12.6096C114.867 12.5523 115.173 12.7947 115.285 12.8626C116.156 13.3898 117.188 13.6159 118.176 13.8009C119.752 14.0958 122.216 14.569 123.543 13.3377C123.639 13.2495 124.11 12.6881 124.007 12.5021C123.899 12.3096 122.331 13.0932 122.264 13.1229C120.28 13.9953 118.219 15.2286 115.968 14.6532C115.229 14.4644 114.554 14.0485 114.013 13.5168C113.843 13.3505 113.371 12.9066 113.607 12.9319C113.851 12.958 114.284 13.2497 114.471 13.3425C115.392 13.7978 116.296 14.2493 117.341 14.3261C119.497 14.4847 122.11 13.6238 122.975 11.4516C123.603 9.87661 121.157 10.954 120.686 11.2201C119.848 11.6928 119.124 12.3117 118.324 12.8388C117.956 13.0819 117.728 13.0647 117.928 12.5523C118.336 11.5066 119.578 10.0821 120.664 9.68969C121.856 9.25913 120.662 11.7874 120.521 12.101" stroke="#F6A8B5" stroke-width="3" stroke-linecap="round"/>
</svg>
