<svg width="31" height="32" viewBox="0 0 31 32" fill="none" xmlns="http://www.w3.org/2000/svg">
<path d="M16.7798 0.112835C16.1848 0.419228 16.1301 1.28838 16.6887 1.66356C16.7737 1.71984 17.1866 1.84489 17.6177 1.94494C18.9171 2.23883 19.5607 2.45768 20.7265 3.00168C22.3963 3.7833 23.8778 4.86505 25.2561 6.32198C27.2477 8.42922 28.5531 10.9554 29.1603 13.888C29.3242 14.6821 29.3667 14.7822 29.6035 14.9635C29.9861 15.2512 30.4536 15.2261 30.7633 14.8947C31.0426 14.5946 31.0608 14.4008 30.8908 13.5504C29.6764 7.39749 25.1529 2.30761 19.2996 0.506769C18.6317 0.300423 17.3445 0.000282685 17.132 0.000282685C17.053 0.000282685 16.8952 0.050306 16.7798 0.112835Z" fill="#4E4E4E"/>
<path d="M5.05508 1.99469C4.27789 2.25106 3.6282 2.80757 1.80664 4.79599C0.501198 6.21541 0.149031 6.93449 0.0275941 8.36641C-0.148489 10.4049 0.519414 12.9873 1.99487 15.9762C2.6142 17.2393 2.89351 17.7333 3.68284 18.9463C6.65805 23.536 10.5622 27.1939 15.1708 29.7201C17.7817 31.152 19.9918 31.8836 22.0016 31.9899C23.4224 32.0712 24.6854 31.6585 25.6326 30.8144C25.7479 30.7143 26.4462 29.9953 27.187 29.2074C28.4135 27.913 28.5531 27.7379 28.7899 27.2565C29.2453 26.3185 29.2514 25.4744 28.796 24.5114C28.547 23.9925 28.4863 23.9237 26.2883 21.6601C24.1571 19.4591 24.0114 19.3215 23.5742 19.1089C22.6452 18.6587 21.6919 18.7025 20.7872 19.2402C20.6354 19.334 19.9493 19.9781 19.2571 20.6847L18.0003 21.9603L17.3991 21.6288C14.7275 20.1782 11.218 16.539 9.91863 13.8752L9.68183 13.4L10.8476 12.1869C12.0923 10.8926 12.3959 10.5049 12.5963 9.91713C12.8635 9.11676 12.8088 8.3539 12.4263 7.54728C12.2259 7.13458 12.0195 6.90323 9.95506 4.77723C7.60526 2.35736 7.41703 2.19478 6.70055 1.97593C6.26338 1.84462 5.48618 1.85087 5.05508 1.99469ZM6.41517 3.81429C6.79163 3.99562 10.7201 8.06002 10.8841 8.44144C11.1998 9.16053 11.0662 9.39814 9.40252 11.0989C8.65569 11.8555 8.006 12.5684 7.94528 12.6872C7.77527 13.0373 7.84813 13.6689 8.12744 14.2817C8.9107 15.995 10.1736 17.7208 12.0984 19.6967C13.6832 21.3287 15.3104 22.5855 16.9559 23.4547C17.642 23.8236 17.7331 23.8549 18.0792 23.8486C18.316 23.8486 18.5285 23.8049 18.6621 23.7361C18.7775 23.6736 19.4879 22.992 20.2408 22.2291C20.9937 21.4663 21.698 20.791 21.8134 20.7284C22.117 20.5721 22.6513 20.6221 22.9549 20.841C23.386 21.1474 27.0777 25.0242 27.2234 25.3181C27.3995 25.6807 27.3995 26.0934 27.2234 26.4561C27.0898 26.7187 25.1347 28.8322 24.4607 29.4325C23.4892 30.3079 22.123 30.4142 19.8765 29.7889C18.2371 29.3324 15.7051 28.0694 13.6225 26.6687C9.19001 23.6798 5.13402 18.8463 3.08173 14.1003C1.76414 11.0489 1.44233 8.71032 2.13452 7.25339C2.25596 6.99077 2.62634 6.56557 3.69499 5.45255C4.57541 4.52712 5.19473 3.93309 5.36475 3.84555C5.70477 3.65796 6.07515 3.65171 6.41517 3.81429Z" fill="#4E4E4E"/>
<path d="M16.4884 5.94058C16.0755 6.2032 15.9298 6.76597 16.1727 7.17241C16.3427 7.46004 16.4884 7.53508 17.2231 7.72266C18.905 8.14786 20.259 8.94198 21.4066 10.1863C22.4935 11.3556 23.2281 12.7688 23.55 14.2882C23.6775 14.876 23.7625 15.0761 23.9811 15.2512C24.4729 15.6514 25.2622 15.3575 25.3715 14.7322C25.4626 14.257 25.0072 12.625 24.4789 11.5432C23.1249 8.72938 20.6719 6.70344 17.721 5.96559C16.9863 5.78426 16.7495 5.77801 16.4884 5.94058Z" fill="#4E4E4E"/>
</svg>
