<svg width="30" height="30" viewBox="0 0 30 30" fill="none" xmlns="http://www.w3.org/2000/svg">
<path d="M12.8314 0.434088L12.85 0.86146L13.6245 0.898623C20.4027 1.22689 26.2887 5.75456 28.3581 12.2333C28.798 13.6083 29.0334 14.9028 29.0954 16.3026L29.1326 17.1821H29.5663H30L29.9628 16.3274C29.7088 10.9636 26.8773 5.95277 22.3853 2.94258C19.7707 1.18354 16.7843 0.192529 13.6678 0.0438781L12.8128 0.00671533L12.8314 0.434088Z" fill="#4E4E4E"/>
<path d="M12.8314 6.0147L12.85 6.43588L13.5315 6.47304C17.503 6.70841 21.1152 9.26645 22.7013 12.9703C23.1784 14.079 23.5378 15.6894 23.5378 16.699V17.1821H23.9715H24.4052V16.7857C24.4052 16.5627 24.3618 16.0672 24.3122 15.677C23.6307 10.4804 19.5291 6.37394 14.3308 5.69263C13.9404 5.64308 13.4386 5.59972 13.2155 5.59972H12.8128L12.8314 6.0147Z" fill="#4E4E4E"/>
<path d="M3.77313 7.20443C3.01724 7.44599 2.79419 7.61322 1.5984 8.81482C0.346847 10.066 0.204343 10.2704 0.0494478 11.0384C-0.055881 11.5834 0.0122729 12.5497 0.204343 13.3115C1.1523 17.0092 4.81403 21.9271 9.47328 25.7363C10.9913 26.9812 12.4597 27.9475 14.0272 28.7403C16.6232 30.0472 18.6493 30.3507 19.8699 29.6136C20.3717 29.3163 22.3482 27.2723 22.565 26.8388C23.0421 25.8787 23.0421 24.6895 22.565 23.7852C22.4535 23.5685 21.964 23.0296 21.0347 22.1005C19.8389 20.9051 19.6158 20.7069 19.2627 20.5459C18.5378 20.2114 17.8005 20.1309 17.0384 20.3105C16.456 20.4468 15.9851 20.7317 15.3903 21.2829C14.7459 21.8837 14.5662 21.9333 13.7732 21.6793C12.8066 21.3697 11.6914 20.5892 10.4956 19.3876C9.2998 18.1798 8.50054 16.9721 8.2589 16.012C8.10401 15.3802 8.15357 15.2068 8.72359 14.606C9.53524 13.7389 9.82025 13.0204 9.76448 12.0108C9.72731 11.3914 9.57241 10.8774 9.2936 10.4376C9.18827 10.2827 8.52532 9.57666 7.819 8.87676C6.46211 7.5327 6.24526 7.37786 5.50176 7.17966C5.03708 7.05578 4.19445 7.06817 3.77313 7.20443ZM5.53274 8.07776C5.99743 8.25738 6.28863 8.49893 7.49682 9.72531C8.79174 11.0446 8.88468 11.2118 8.88468 12.1657C8.88468 13.0204 8.75457 13.3115 8.02966 14.0796C7.42866 14.7113 7.33572 14.9095 7.34192 15.5723C7.35431 16.7615 8.29608 18.4028 9.8822 19.9884C11.3692 21.4873 12.7137 22.3483 13.959 22.6146C14.7955 22.788 15.2416 22.6332 15.9851 21.9147C16.2825 21.6236 16.5985 21.3944 16.8215 21.2829C17.1499 21.1343 17.2552 21.1157 17.8376 21.1157C18.8228 21.1157 18.9467 21.19 20.4523 22.6889C21.7782 24.0082 21.9331 24.2312 22.057 24.9806C22.1313 25.4514 22.0074 26.1079 21.7658 26.5291C21.6728 26.6839 21.1462 27.2662 20.5948 27.8174C19.4052 29.0128 19.2813 29.0871 18.3891 29.1243C16.5799 29.2048 13.8909 28.0032 10.9913 25.823C6.70375 22.6022 2.89952 18.0126 1.42492 14.2901C0.997407 13.2 0.898274 12.7293 0.892078 11.825C0.892078 10.6977 0.910666 10.6606 2.21179 9.37226C3.28986 8.30693 3.60584 8.08395 4.20684 7.95388C4.59098 7.87336 5.11762 7.92911 5.53274 8.07776Z" fill="#4E4E4E"/>
<path d="M12.8314 11.5829L12.85 12.0103L13.3147 12.0475C15.4956 12.2333 17.3234 13.8127 17.8376 15.9619C17.9058 16.2407 17.9615 16.6309 17.9615 16.8229V17.1821H18.3952H18.8289V16.8848C18.8289 16.4141 18.7112 15.8319 18.4944 15.1815C17.7385 12.9703 15.6505 11.3538 13.3333 11.1927L12.8128 11.1556L12.8314 11.5829Z" fill="#4E4E4E"/>
</svg>
